<?xml version="1.0" encoding="UTF-8" standalone="no"?>
<!-- Created with Inkscape (http://www.inkscape.org/) -->

<svg
   xmlns:dc="http://purl.org/dc/elements/1.1/"
   xmlns:cc="http://creativecommons.org/ns#"
   xmlns:rdf="http://www.w3.org/1999/02/22-rdf-syntax-ns#"
   xmlns:svg="http://www.w3.org/2000/svg"
   xmlns="http://www.w3.org/2000/svg"
   xmlns:sodipodi="http://sodipodi.sourceforge.net/DTD/sodipodi-0.dtd"
   xmlns:inkscape="http://www.inkscape.org/namespaces/inkscape"
   width="200"
   height="200"
   viewBox="0 0 52.916668 52.916666"
   version="1.1"
   id="svg8"
   inkscape:version="0.92.5 (2060ec1f9f, 2020-04-08)"
   sodipodi:docname="juditious.svg"
   enable-background="new">
  <defs
     id="defs2">
    <marker
       inkscape:stockid="Arrow1Send"
       orient="auto"
       refY="0.0"
       refX="0.0"
       id="marker2771"
       style="overflow:visible;"
       inkscape:isstock="true">
      <path
         id="path2769"
         d="M 0.0,0.0 L 5.0,-5.0 L -12.5,0.0 L 5.0,5.0 L 0.0,0.0 z "
         style="fill-rule:evenodd;stroke:#f2f2f2;stroke-width:1pt;stroke-opacity:1;fill:#f2f2f2;fill-opacity:1"
         transform="scale(0.2) rotate(180) translate(6,0)" />
    </marker>
    <marker
       inkscape:stockid="Arrow1Send"
       orient="auto"
       refY="0.0"
       refX="0.0"
       id="marker2318"
       style="overflow:visible;"
       inkscape:isstock="true">
      <path
         id="path2316"
         d="M 0.0,0.0 L 5.0,-5.0 L -12.5,0.0 L 5.0,5.0 L 0.0,0.0 z "
         style="fill-rule:evenodd;stroke:#f2f2f2;stroke-width:1pt;stroke-opacity:1;fill:#f2f2f2;fill-opacity:1"
         transform="scale(0.2) rotate(180) translate(6,0)" />
    </marker>
    <marker
       inkscape:stockid="Arrow1Send"
       orient="auto"
       refY="0.0"
       refX="0.0"
       id="marker2218"
       style="overflow:visible;"
       inkscape:isstock="true">
      <path
         id="path1069"
         d="M 0.0,0.0 L 5.0,-5.0 L -12.5,0.0 L 5.0,5.0 L 0.0,0.0 z "
         style="fill-rule:evenodd;stroke:#f2f2f2;stroke-width:1pt;stroke-opacity:1;fill:#f2f2f2;fill-opacity:1"
         transform="scale(0.2) rotate(180) translate(6,0)" />
    </marker>
    <pattern
       inkscape:isstock="true"
       inkscape:stockid="Stripes 1:1"
       id="Strips1_1"
       patternTransform="translate(0,0) scale(10,10)"
       height="1"
       width="2"
       patternUnits="userSpaceOnUse"
       inkscape:collect="always">
      <rect
         id="rect1744"
         height="2"
         width="1"
         y="-0.5"
         x="0"
         style="fill:black;stroke:none" />
    </pattern>
    <marker
       inkscape:stockid="Arrow1Send"
       orient="auto"
       refY="0.0"
       refX="0.0"
       id="Arrow1Send"
       style="overflow:visible;"
       inkscape:isstock="true">
      <path
         id="path862"
         d="M 0.0,0.0 L 5.0,-5.0 L -12.5,0.0 L 5.0,5.0 L 0.0,0.0 z "
         style="fill-rule:evenodd;stroke:#f2f2f2;stroke-width:1pt;stroke-opacity:1;fill:#f2f2f2;fill-opacity:1"
         transform="scale(0.2) rotate(180) translate(6,0)" />
    </marker>
    <marker
       inkscape:stockid="Arrow1Mend"
       orient="auto"
       refY="0.0"
       refX="0.0"
       id="Arrow1Mend"
       style="overflow:visible;"
       inkscape:isstock="true">
      <path
         id="path856"
         d="M 0.0,0.0 L 5.0,-5.0 L -12.5,0.0 L 5.0,5.0 L 0.0,0.0 z "
         style="fill-rule:evenodd;stroke:#f2f2f2;stroke-width:1pt;stroke-opacity:1;fill:#f2f2f2;fill-opacity:1"
         transform="scale(0.4) rotate(180) translate(10,0)" />
    </marker>
    <marker
       inkscape:stockid="Arrow1Lstart"
       orient="auto"
       refY="0.0"
       refX="0.0"
       id="marker1285"
       style="overflow:visible"
       inkscape:isstock="true">
      <path
         id="path1283"
         d="M 0.0,0.0 L 5.0,-5.0 L -12.5,0.0 L 5.0,5.0 L 0.0,0.0 z "
         style="fill-rule:evenodd;stroke:#f2f2f2;stroke-width:1pt;stroke-opacity:1;fill:#f2f2f2;fill-opacity:1"
         transform="scale(0.8) translate(12.5,0)" />
    </marker>
    <marker
       inkscape:stockid="Arrow1Lend"
       orient="auto"
       refY="0.0"
       refX="0.0"
       id="Arrow1Lend"
       style="overflow:visible;"
       inkscape:isstock="true">
      <path
         id="path850"
         d="M 0.0,0.0 L 5.0,-5.0 L -12.5,0.0 L 5.0,5.0 L 0.0,0.0 z "
         style="fill-rule:evenodd;stroke:#f2f2f2;stroke-width:1pt;stroke-opacity:1;fill:#f2f2f2;fill-opacity:1"
         transform="scale(0.8) rotate(180) translate(12.5,0)" />
    </marker>
    <marker
       inkscape:stockid="Arrow2Lend"
       orient="auto"
       refY="0.0"
       refX="0.0"
       id="Arrow2Lend"
       style="overflow:visible;"
       inkscape:isstock="true">
      <path
         id="path868"
         style="fill-rule:evenodd;stroke-width:0.625;stroke-linejoin:round;stroke:#f2f2f2;stroke-opacity:1;fill:#f2f2f2;fill-opacity:1"
         d="M 8.7185878,4.0337352 L -2.2072895,0.016013256 L 8.7185884,-4.0017078 C 6.9730900,-1.6296469 6.9831476,1.6157441 8.7185878,4.0337352 z "
         transform="scale(1.1) rotate(180) translate(1,0)" />
    </marker>
    <marker
       inkscape:stockid="Arrow1Lstart"
       orient="auto"
       refY="0.0"
       refX="0.0"
       id="marker1157"
       style="overflow:visible"
       inkscape:isstock="true">
      <path
         id="path1155"
         d="M 0.0,0.0 L 5.0,-5.0 L -12.5,0.0 L 5.0,5.0 L 0.0,0.0 z "
         style="fill-rule:evenodd;stroke:#f2f2f2;stroke-width:1pt;stroke-opacity:1;fill:#f2f2f2;fill-opacity:1"
         transform="scale(0.8) translate(12.5,0)" />
    </marker>
    <marker
       inkscape:stockid="Arrow2Lstart"
       orient="auto"
       refY="0.0"
       refX="0.0"
       id="Arrow2Lstart"
       style="overflow:visible"
       inkscape:isstock="true">
      <path
         id="path865"
         style="fill-rule:evenodd;stroke-width:0.625;stroke-linejoin:round;stroke:#f2f2f2;stroke-opacity:1;fill:#f2f2f2;fill-opacity:1"
         d="M 8.7185878,4.0337352 L -2.2072895,0.016013256 L 8.7185884,-4.0017078 C 6.9730900,-1.6296469 6.9831476,1.6157441 8.7185878,4.0337352 z "
         transform="scale(1.1) translate(1,0)" />
    </marker>
    <marker
       inkscape:stockid="Arrow1Lstart"
       orient="auto"
       refY="0.0"
       refX="0.0"
       id="Arrow1Lstart"
       style="overflow:visible"
       inkscape:isstock="true">
      <path
         id="path847"
         d="M 0.0,0.0 L 5.0,-5.0 L -12.5,0.0 L 5.0,5.0 L 0.0,0.0 z "
         style="fill-rule:evenodd;stroke:#f2f2f2;stroke-width:1pt;stroke-opacity:1;fill:#f2f2f2;fill-opacity:1"
         transform="scale(0.8) translate(12.5,0)" />
    </marker>
    <inkscape:path-effect
       effect="envelope"
       id="path-effect4658"
       is_visible="true"
       yy="true"
       xx="true"
       bendpath1="m -199.08406,108.42369 h 7.0057"
       bendpath2="m -192.07836,108.42369 v 6.75242"
       bendpath3="m -199.08406,115.17611 h 7.0057"
       bendpath4="m -199.08406,108.42369 v 6.75242" />
    <inkscape:path-effect
       effect="bend_path"
       id="path-effect4656"
       is_visible="true"
       bendpath="m -192.00142,114.60623 c 2.12577,-0.53066 4.48261,0.85111 7.0057,0"
       prop_scale="1"
       scale_y_rel="false"
       vertical="false"
       bendpath-nodetypes="cc" />
    <inkscape:path-effect
       effect="bounding_box"
       id="path-effect4654"
       is_visible="true"
       linkedpath=""
       visualbounds="false" />
    <marker
       inkscape:stockid="Arrow1Send"
       orient="auto"
       refY="0"
       refX="0"
       id="Arrow1Send-7"
       style="overflow:visible"
       inkscape:isstock="true">
      <path
         inkscape:connector-curvature="0"
         id="path862-3"
         d="M 0,0 5,-5 -12.5,0 5,5 Z"
         style="fill:#f2f2f2;fill-opacity:1;fill-rule:evenodd;stroke:#f2f2f2;stroke-width:1.00000003pt;stroke-opacity:1"
         transform="matrix(-0.2,0,0,-0.2,-1.2,0)" />
    </marker>
    <marker
       inkscape:stockid="Arrow1Send"
       orient="auto"
       refY="0"
       refX="0"
       id="Arrow1Send-4"
       style="overflow:visible"
       inkscape:isstock="true">
      <path
         inkscape:connector-curvature="0"
         id="path862-7"
         d="M 0,0 5,-5 -12.5,0 5,5 Z"
         style="fill:url(#Strips1_1);fill-opacity:1;fill-rule:evenodd;stroke:#f2f2f2;stroke-width:1.00000003pt;stroke-opacity:1"
         transform="matrix(-0.2,0,0,-0.2,-1.2,0)" />
    </marker>
    <marker
       inkscape:stockid="Arrow1Send"
       orient="auto"
       refY="0"
       refX="0"
       id="Arrow1Send-4-7"
       style="overflow:visible"
       inkscape:isstock="true">
      <path
         inkscape:connector-curvature="0"
         id="path862-7-2"
         d="M 0,0 5,-5 -12.5,0 5,5 Z"
         style="fill:#f2f2f2;fill-opacity:1;fill-rule:evenodd;stroke:#f2f2f2;stroke-width:1.00000003pt;stroke-opacity:1"
         transform="matrix(-0.2,0,0,-0.2,-1.2,0)" />
    </marker>
    <marker
       inkscape:stockid="Arrow1Send"
       orient="auto"
       refY="0"
       refX="0"
       id="Arrow1Send-1"
       style="overflow:visible"
       inkscape:isstock="true">
      <path
         inkscape:connector-curvature="0"
         id="path862-6"
         d="M 0,0 5,-5 -12.5,0 5,5 Z"
         style="fill:#f2f2f2;fill-opacity:1;fill-rule:evenodd;stroke:#f2f2f2;stroke-width:1.00000003pt;stroke-opacity:1"
         transform="matrix(-0.2,0,0,-0.2,-1.2,0)" />
    </marker>
  </defs>
  <sodipodi:namedview
     id="base"
     pagecolor="#ffffff"
     bordercolor="#666666"
     borderopacity="1.0"
     inkscape:pageopacity="0.0"
     inkscape:pageshadow="2"
     inkscape:zoom="2.8284271"
     inkscape:cx="-31.325694"
     inkscape:cy="105.07799"
     inkscape:document-units="px"
     inkscape:current-layer="layer6"
     showgrid="false"
     fit-margin-top="0"
     fit-margin-left="0"
     fit-margin-right="0"
     fit-margin-bottom="0"
     inkscape:window-width="1920"
     inkscape:window-height="1015"
     inkscape:window-x="0"
     inkscape:window-y="0"
     inkscape:window-maximized="1"
     showguides="true"
     inkscape:object-nodes="false"
     units="px" />
  <metadata
     id="metadata5">
    <rdf:RDF>
      <cc:Work
         rdf:about="">
        <dc:format>image/svg+xml</dc:format>
        <dc:type
           rdf:resource="http://purl.org/dc/dcmitype/StillImage" />
        <dc:title />
      </cc:Work>
    </rdf:RDF>
  </metadata>
  <g
     inkscape:groupmode="layer"
     id="layer5"
     inkscape:label="background">
    <rect
       transform="scale(2)"
       y="-1.110223e-16"
       x="0"
       height="26.458334"
       width="26.458334"
       id="rect4485"
       style="stroke-width:0.25003125;opacity:1;fill:#1a1a1a;fill-opacity:1;fill-rule:nonzero;stroke:#1a1a1a;stroke-linecap:butt;stroke-linejoin:round;stroke-miterlimit:4;stroke-dasharray:none;stroke-dashoffset:0;stroke-opacity:0.90944878;paint-order:normal"
       rx="1.984375"
       ry="1.984375" />
  </g>
  <g
     inkscape:groupmode="layer"
     id="layer8"
     inkscape:label="icon-bg">
    <rect
       style="stroke-width:0.25;opacity:1;fill:#1a1a1a;fill-opacity:1;fill-rule:nonzero;stroke:#1a1a1a;stroke-linecap:butt;stroke-linejoin:round;stroke-miterlimit:4;stroke-dasharray:none;stroke-dashoffset:0;stroke-opacity:0.90944878;paint-order:normal"
       id="rect4487"
       width="23.8125"
       height="23.8125"
       x="0.529167"
       y="0.13229197"
       rx="1.3229166"
       ry="1.3229166"
       transform="matrix(2,0,0,2,1.5875,2.38125)" />
  </g>
  <g
     inkscape:label="icon"
     inkscape:groupmode="layer"
     id="layer1"
     transform="translate(39.608708,-92.411388)"
     style="">
    <path
       sodipodi:type="spiral"
       style="fill:none;fill-rule:evenodd;stroke:#f2f2f2;stroke-width:1.65958474;stroke-miterlimit:4;stroke-dasharray:13.27667796,3.31916949,1.65958474,3.31916949;stroke-linecap:square;stroke-dashoffset:0"
       id="path2976"
       sodipodi:cx="-16.690344"
       sodipodi:cy="112.21336"
       sodipodi:expansion="2"
       sodipodi:revolution="3.4000001"
       sodipodi:radius="17.402767"
       sodipodi:argument="-20.076609"
       sodipodi:t0="0.30000001"
       d="m -15.981838,110.81653 c 1.139013,0.1919 1.695671,1.44663 1.456969,2.49521 -0.373582,1.64108 -2.203929,2.41678 -3.738842,2.00356 -2.234118,-0.60145 -3.266742,-3.12259 -2.632855,-5.23542 0.875547,-2.91831 4.202664,-4.24565 6.984948,-3.34485 3.69377,1.19591 5.3535529,5.44418 4.1395419,8.98742 -1.5625669,4.56055 -6.8471619,6.59048 -11.2428479,5.01694 -5.518675,-1.97553 -7.956426,-8.41162 -5.977032,-13.75122 2.434828,-6.56817 10.137576,-9.451423 16.512544,-7.019827 7.7090579,2.940457 11.07547133,12.025027 8.1453227,19.526817 -1.6799476,4.30101 -5.1911972,7.72217 -9.4704457,9.42105"
       transform="matrix(1.1165142,0,0,1.1154701,2.5118426,-11.986094)" />
  </g>
  <g
     inkscape:groupmode="layer"
     id="layer4"
     inkscape:label="word_bg">
    <path
       style="opacity:1;fill:#f2f2f2;fill-opacity:1;fill-rule:nonzero;stroke:none;stroke-width:0.49468067;stroke-linecap:butt;stroke-linejoin:round;stroke-miterlimit:4;stroke-dasharray:none;stroke-dashoffset:0;stroke-opacity:0.90944878;paint-order:normal"
       d="m 1.984376,37.041672 v 8.334376 c 0,3.078162 2.4256414,5.556248 5.4386576,5.556248 H 45.493634 c 3.013016,0 5.438657,-2.478086 5.438657,-5.556248 v -8.334376 z"
       id="rect5205-3"
       inkscape:connector-curvature="0" />
  </g>
  <g
     inkscape:groupmode="layer"
     id="layer6"
     inkscape:label="word">
    <g
       aria-label="JUDITIOUS"
       style="font-style:normal;font-weight:normal;font-size:10.58333397px;line-height:1.25;font-family:sans-serif;letter-spacing:0px;word-spacing:0px;fill:#1a1a1a;fill-opacity:1;stroke:#1a1a1a;stroke-width:0.39687499;stroke-miterlimit:4;stroke-dasharray:none"
       id="text826">
      <path
         d="m 6.2322241,45.571833 v 0.169334 q 0,0.296333 0.010583,0.60325 0.021167,0.306917 0.1164167,0.560917 0.09525,0.243416 0.28575,0.402166 0.2010834,0.15875 0.5609167,0.15875 0.3069167,0 0.47625,-0.116416 0.1799167,-0.116417 0.2645834,-0.296334 0.084667,-0.1905 0.1058333,-0.423333 0.021167,-0.232834 0.021167,-0.47625 v -6.201834 h 0.6879167 v 6.244167 q 0,0.41275 -0.084667,0.762 -0.074083,0.338667 -0.2645833,0.592667 -0.1905,0.254 -0.508,0.391583 -0.3069167,0.137584 -0.7620001,0.137584 -0.4445,0 -0.7514167,-0.169334 Q 6.0946408,47.752 5.9041407,47.487417 5.7242241,47.21225 5.6395574,46.863 5.5548907,46.503167 5.5443074,46.122167 v -0.550334 z"
         style="font-style:normal;font-variant:normal;font-weight:normal;font-stretch:normal;font-family:'Helvetica LT CondensedLight';-inkscape-font-specification:'Helvetica LT CondensedLight';fill:#1a1a1a;fill-opacity:1;stroke:#1a1a1a;stroke-width:0.39687499;stroke-miterlimit:4;stroke-dasharray:none"
         id="path1052" />
      <path
         d="m 10.306807,39.952083 h 0.687917 v 5.757334 q 0,0.423333 0.05292,0.751417 0.0635,0.328083 0.22225,0.550333 0.15875,0.22225 0.4445,0.338667 0.28575,0.116416 0.73025,0.116416 0.465667,0 0.762,-0.127 0.296334,-0.137583 0.455084,-0.381 0.169333,-0.243416 0.232833,-0.5715 0.0635,-0.338667 0.0635,-0.740833 v -5.693834 h 0.687917 v 5.5245 q 0,0.582084 -0.105833,1.058334 -0.09525,0.47625 -0.34925,0.8255 -0.243417,0.338667 -0.666751,0.529167 -0.41275,0.1905 -1.058333,0.1905 -1.143,0 -1.651,-0.592667 -0.508,-0.60325 -0.508,-1.693334 z"
         style="font-style:normal;font-variant:normal;font-weight:normal;font-stretch:normal;font-family:'Helvetica LT CondensedLight';-inkscape-font-specification:'Helvetica LT CondensedLight';fill:#1a1a1a;fill-opacity:1;stroke:#1a1a1a;stroke-width:0.39687499;stroke-miterlimit:4;stroke-dasharray:none"
         id="path1054" />
      <path
         d="m 16.868472,47.27575 h 0.8255 q 0.296333,0 0.613833,-0.02117 0.328083,-0.02117 0.60325,-0.148167 0.391583,-0.179917 0.613833,-0.560917 0.232834,-0.391583 0.338667,-0.85725 0.105833,-0.465667 0.127,-0.941917 0.03175,-0.47625 0.03175,-0.836083 0,-0.381 -0.01058,-0.836083 -0.01058,-0.465667 -0.105834,-0.910167 -0.09525,-0.4445 -0.306916,-0.8255 -0.211667,-0.381 -0.60325,-0.592667 -0.15875,-0.08467 -0.34925,-0.127 -0.1905,-0.04233 -0.402167,-0.05292 -0.201083,-0.02117 -0.402167,-0.01058 -0.201083,0 -0.381,0.01058 h -0.592666 z m -0.687917,-7.323667 h 1.418167 q 0.338666,0 0.656166,0.02117 0.3175,0.02117 0.613834,0.09525 0.296333,0.07408 0.560916,0.22225 0.275167,0.148166 0.518584,0.41275 0.201083,0.243417 0.338666,0.5715 0.148167,0.3175 0.243417,0.677333 0.09525,0.359834 0.137583,0.719667 0.04233,0.34925 0.04233,0.645583 0,0.338667 0,0.719667 0,0.381 -0.03175,0.772583 -0.02117,0.391584 -0.08467,0.772584 -0.0635,0.370416 -0.1905,0.687916 -0.179917,0.508001 -0.433917,0.825501 -0.254,0.3175 -0.592666,0.497416 -0.328084,0.169334 -0.740834,0.232834 -0.402166,0.0635 -0.899583,0.0635 h -1.55575 z"
         style="font-style:normal;font-variant:normal;font-weight:normal;font-stretch:normal;font-family:'Helvetica LT CondensedLight';-inkscape-font-specification:'Helvetica LT CondensedLight';fill:#1a1a1a;fill-opacity:1;stroke:#1a1a1a;stroke-width:0.39687499;stroke-miterlimit:4;stroke-dasharray:none"
         id="path1056" />
      <path
         d="m 22.138969,47.889584 v -7.937501 h 0.687917 v 7.937501 z"
         style="font-style:normal;font-variant:normal;font-weight:normal;font-stretch:normal;font-family:'Helvetica LT CondensedLight';-inkscape-font-specification:'Helvetica LT CondensedLight';fill:#1a1a1a;fill-opacity:1;stroke:#1a1a1a;stroke-width:0.39687499;stroke-miterlimit:4;stroke-dasharray:none"
         id="path1058" />
      <path
         d="m 23.864034,40.565916 v -0.613833 h 4.28625 v 0.613833 h -1.799167 v 7.323668 h -0.687916 v -7.323668 z"
         style="font-style:normal;font-variant:normal;font-weight:normal;font-stretch:normal;font-family:'Helvetica LT CondensedLight';-inkscape-font-specification:'Helvetica LT CondensedLight';fill:#1a1a1a;fill-opacity:1;stroke:#1a1a1a;stroke-width:0.39687499;stroke-miterlimit:4;stroke-dasharray:none"
         id="path1060" />
      <path
         d="m 29.187433,47.889584 v -7.937501 h 0.687916 v 7.937501 z"
         style="font-style:normal;font-variant:normal;font-weight:normal;font-stretch:normal;font-family:'Helvetica LT CondensedLight';-inkscape-font-specification:'Helvetica LT CondensedLight';fill:#1a1a1a;fill-opacity:1;stroke:#1a1a1a;stroke-width:0.39687499;stroke-miterlimit:4;stroke-dasharray:none"
         id="path1062" />
      <path
         d="m 33.685331,47.46625 q 0.423333,0 0.6985,-0.179916 0.28575,-0.1905 0.465667,-0.486834 0.179917,-0.296333 0.264583,-0.677333 0.09525,-0.381 0.127,-0.772584 0.04233,-0.391583 0.04233,-0.762 0.01058,-0.370416 0.01058,-0.656166 0,-0.28575 -0.01058,-0.66675 0,-0.381 -0.05292,-0.772584 -0.04233,-0.391583 -0.148167,-0.772583 -0.09525,-0.381 -0.28575,-0.677333 -0.179916,-0.306917 -0.47625,-0.486834 -0.28575,-0.179917 -0.709083,-0.179917 -0.402167,0 -0.677334,0.179917 -0.275166,0.179917 -0.455083,0.47625 -0.169333,0.28575 -0.275167,0.656167 -0.09525,0.370417 -0.137583,0.762 -0.04233,0.381 -0.05292,0.751417 -0.01058,0.370416 -0.01058,0.656166 0,0.306917 0,0.6985 0.01058,0.381 0.04233,0.783167 0.04233,0.391583 0.137584,0.783167 0.105833,0.381 0.28575,0.677333 0.1905,0.296334 0.486833,0.486834 0.296333,0.179916 0.73025,0.179916 z m -0.0635,0.613834 q -0.5715,0 -0.973667,-0.201084 -0.391583,-0.211666 -0.645583,-0.560916 -0.254,-0.34925 -0.402167,-0.79375 -0.137583,-0.455084 -0.201083,-0.941917 -0.0635,-0.486834 -0.07408,-0.973667 -0.01058,-0.486833 -0.01058,-0.910167 0,-0.613833 0.0635,-1.30175 0.07408,-0.687916 0.306917,-1.27 0.243417,-0.592667 0.6985,-0.973667 0.465667,-0.391583 1.259417,-0.391583 0.582083,0 0.98425,0.201083 0.402167,0.201084 0.656167,0.53975 0.264583,0.338667 0.402166,0.783167 0.137584,0.433917 0.201084,0.92075 0.07408,0.47625 0.08467,0.963084 0.01058,0.486833 0.01058,0.92075 0,0.645583 -0.05292,1.354666 -0.05292,0.6985 -0.28575,1.291167 -0.232833,0.582084 -0.709083,0.963084 -0.476251,0.381 -1.312334,0.381 z"
         style="font-style:normal;font-variant:normal;font-weight:normal;font-stretch:normal;font-family:'Helvetica LT CondensedLight';-inkscape-font-specification:'Helvetica LT CondensedLight';fill:#1a1a1a;fill-opacity:1;stroke:#1a1a1a;stroke-width:0.39687499;stroke-miterlimit:4;stroke-dasharray:none"
         id="path1064" />
      <path
         d="m 37.357745,39.952083 h 0.687917 v 5.757334 q 0,0.423333 0.05292,0.751417 0.0635,0.328083 0.22225,0.550333 0.15875,0.22225 0.4445,0.338667 0.285751,0.116416 0.730251,0.116416 0.465666,0 0.762,-0.127 0.296333,-0.137583 0.455083,-0.381 0.169333,-0.243416 0.232833,-0.5715 0.0635,-0.338667 0.0635,-0.740833 v -5.693834 h 0.687917 v 5.5245 q 0,0.582084 -0.105833,1.058334 -0.09525,0.47625 -0.34925,0.8255 -0.243417,0.338667 -0.66675,0.529167 -0.41275,0.1905 -1.058334,0.1905 -1.143,0 -1.651,-0.592667 -0.508,-0.60325 -0.508,-1.693334 z"
         style="font-style:normal;font-variant:normal;font-weight:normal;font-stretch:normal;font-family:'Helvetica LT CondensedLight';-inkscape-font-specification:'Helvetica LT CondensedLight';fill:#1a1a1a;fill-opacity:1;stroke:#1a1a1a;stroke-width:0.39687499;stroke-miterlimit:4;stroke-dasharray:none"
         id="path1066" />
      <path
         d="m 45.316409,43.561 q 0.433917,0.179917 0.804334,0.359833 0.381,0.179917 0.645583,0.433917 0.275167,0.243417 0.423333,0.60325 0.15875,0.34925 0.15875,0.889 0,0.508 -0.15875,0.92075 -0.15875,0.41275 -0.455083,0.709084 -0.296333,0.28575 -0.719667,0.4445 -0.423333,0.15875 -0.941916,0.15875 -0.53975,0 -0.9525,-0.179917 -0.41275,-0.179917 -0.698501,-0.508 -0.275166,-0.328083 -0.41275,-0.772583 -0.127,-0.444501 -0.116416,-0.973667 h 0.677333 q 0,0.370416 0.07408,0.709083 0.08467,0.328084 0.254,0.582084 0.179916,0.243416 0.465666,0.391583 0.28575,0.137583 0.6985,0.137583 0.73025,0 1.164167,-0.423333 0.433917,-0.433917 0.433917,-1.17475 0,-0.4445 -0.148167,-0.719667 -0.148167,-0.28575 -0.402167,-0.465667 -0.243416,-0.179916 -0.5715,-0.296333 -0.3175,-0.127 -0.656166,-0.264583 -0.402167,-0.15875 -0.740834,-0.338667 -0.328083,-0.179917 -0.5715,-0.423333 -0.243417,-0.254 -0.381,-0.592667 -0.137583,-0.338667 -0.137583,-0.814917 0,-0.486833 0.137583,-0.889 0.148167,-0.402167 0.41275,-0.687917 0.264584,-0.296333 0.645584,-0.455083 0.381,-0.15875 0.867833,-0.15875 0.465667,0 0.836083,0.15875 0.381,0.148167 0.645584,0.433917 0.275166,0.275166 0.41275,0.66675 0.137583,0.381 0.127,0.846667 h -0.66675 q 0.03175,-0.66675 -0.338667,-1.079501 -0.359833,-0.41275 -1.026583,-0.41275 -0.338667,0 -0.592667,0.116417 -0.254,0.116417 -0.433917,0.328083 -0.169333,0.201084 -0.254,0.486834 -0.08467,0.275167 -0.08467,0.60325 0,0.296333 0.05292,0.508 0.05292,0.211667 0.15875,0.370417 0.116417,0.15875 0.296334,0.28575 0.1905,0.116416 0.455083,0.232833 z"
         style="font-style:normal;font-variant:normal;font-weight:normal;font-stretch:normal;font-family:'Helvetica LT CondensedLight';-inkscape-font-specification:'Helvetica LT CondensedLight';fill:#1a1a1a;fill-opacity:1;stroke:#1a1a1a;stroke-width:0.39687499;stroke-miterlimit:4;stroke-dasharray:none"
         id="path1068" />
    </g>
  </g>
</svg>
