<?xml version="1.0" encoding="UTF-8" standalone="no"?>
<!-- Created with Inkscape (http://www.inkscape.org/) -->

<svg
   xmlns:dc="http://purl.org/dc/elements/1.1/"
   xmlns:cc="http://creativecommons.org/ns#"
   xmlns:rdf="http://www.w3.org/1999/02/22-rdf-syntax-ns#"
   xmlns:svg="http://www.w3.org/2000/svg"
   xmlns="http://www.w3.org/2000/svg"
   xmlns:sodipodi="http://sodipodi.sourceforge.net/DTD/sodipodi-0.dtd"
   xmlns:inkscape="http://www.inkscape.org/namespaces/inkscape"
   width="200"
   height="200"
   viewBox="0 0 52.916668 52.916666"
   version="1.1"
   id="svg8"
   inkscape:version="0.92.5 (2060ec1f9f, 2020-04-08)"
   sodipodi:docname="obstinate.svg"
   enable-background="new">
  <defs
     id="defs2">
    <marker
       inkscape:stockid="Arrow1Send"
       orient="auto"
       refY="0.0"
       refX="0.0"
       id="marker2771"
       style="overflow:visible;"
       inkscape:isstock="true">
      <path
         id="path2769"
         d="M 0.0,0.0 L 5.0,-5.0 L -12.5,0.0 L 5.0,5.0 L 0.0,0.0 z "
         style="fill-rule:evenodd;stroke:#f2f2f2;stroke-width:1pt;stroke-opacity:1;fill:#f2f2f2;fill-opacity:1"
         transform="scale(0.2) rotate(180) translate(6,0)" />
    </marker>
    <marker
       inkscape:stockid="Arrow1Send"
       orient="auto"
       refY="0.0"
       refX="0.0"
       id="marker2318"
       style="overflow:visible;"
       inkscape:isstock="true">
      <path
         id="path2316"
         d="M 0.0,0.0 L 5.0,-5.0 L -12.5,0.0 L 5.0,5.0 L 0.0,0.0 z "
         style="fill-rule:evenodd;stroke:#f2f2f2;stroke-width:1pt;stroke-opacity:1;fill:#f2f2f2;fill-opacity:1"
         transform="scale(0.2) rotate(180) translate(6,0)" />
    </marker>
    <marker
       inkscape:stockid="Arrow1Send"
       orient="auto"
       refY="0.0"
       refX="0.0"
       id="marker2218"
       style="overflow:visible;"
       inkscape:isstock="true">
      <path
         id="path1069"
         d="M 0.0,0.0 L 5.0,-5.0 L -12.5,0.0 L 5.0,5.0 L 0.0,0.0 z "
         style="fill-rule:evenodd;stroke:#f2f2f2;stroke-width:1pt;stroke-opacity:1;fill:#f2f2f2;fill-opacity:1"
         transform="scale(0.2) rotate(180) translate(6,0)" />
    </marker>
    <pattern
       inkscape:isstock="true"
       inkscape:stockid="Stripes 1:1"
       id="Strips1_1"
       patternTransform="translate(0,0) scale(10,10)"
       height="1"
       width="2"
       patternUnits="userSpaceOnUse"
       inkscape:collect="always">
      <rect
         id="rect1744"
         height="2"
         width="1"
         y="-0.5"
         x="0"
         style="fill:black;stroke:none" />
    </pattern>
    <marker
       inkscape:stockid="Arrow1Send"
       orient="auto"
       refY="0.0"
       refX="0.0"
       id="Arrow1Send"
       style="overflow:visible;"
       inkscape:isstock="true">
      <path
         id="path862"
         d="M 0.0,0.0 L 5.0,-5.0 L -12.5,0.0 L 5.0,5.0 L 0.0,0.0 z "
         style="fill-rule:evenodd;stroke:#f2f2f2;stroke-width:1pt;stroke-opacity:1;fill:#f2f2f2;fill-opacity:1"
         transform="scale(0.2) rotate(180) translate(6,0)" />
    </marker>
    <marker
       inkscape:stockid="Arrow1Mend"
       orient="auto"
       refY="0.0"
       refX="0.0"
       id="Arrow1Mend"
       style="overflow:visible;"
       inkscape:isstock="true">
      <path
         id="path856"
         d="M 0.0,0.0 L 5.0,-5.0 L -12.5,0.0 L 5.0,5.0 L 0.0,0.0 z "
         style="fill-rule:evenodd;stroke:#f2f2f2;stroke-width:1pt;stroke-opacity:1;fill:#f2f2f2;fill-opacity:1"
         transform="scale(0.4) rotate(180) translate(10,0)" />
    </marker>
    <marker
       inkscape:stockid="Arrow1Lstart"
       orient="auto"
       refY="0.0"
       refX="0.0"
       id="marker1285"
       style="overflow:visible"
       inkscape:isstock="true">
      <path
         id="path1283"
         d="M 0.0,0.0 L 5.0,-5.0 L -12.5,0.0 L 5.0,5.0 L 0.0,0.0 z "
         style="fill-rule:evenodd;stroke:#f2f2f2;stroke-width:1pt;stroke-opacity:1;fill:#f2f2f2;fill-opacity:1"
         transform="scale(0.8) translate(12.5,0)" />
    </marker>
    <marker
       inkscape:stockid="Arrow1Lend"
       orient="auto"
       refY="0.0"
       refX="0.0"
       id="Arrow1Lend"
       style="overflow:visible;"
       inkscape:isstock="true">
      <path
         id="path850"
         d="M 0.0,0.0 L 5.0,-5.0 L -12.5,0.0 L 5.0,5.0 L 0.0,0.0 z "
         style="fill-rule:evenodd;stroke:#f2f2f2;stroke-width:1pt;stroke-opacity:1;fill:#f2f2f2;fill-opacity:1"
         transform="scale(0.8) rotate(180) translate(12.5,0)" />
    </marker>
    <marker
       inkscape:stockid="Arrow2Lend"
       orient="auto"
       refY="0.0"
       refX="0.0"
       id="Arrow2Lend"
       style="overflow:visible;"
       inkscape:isstock="true">
      <path
         id="path868"
         style="fill-rule:evenodd;stroke-width:0.625;stroke-linejoin:round;stroke:#f2f2f2;stroke-opacity:1;fill:#f2f2f2;fill-opacity:1"
         d="M 8.7185878,4.0337352 L -2.2072895,0.016013256 L 8.7185884,-4.0017078 C 6.9730900,-1.6296469 6.9831476,1.6157441 8.7185878,4.0337352 z "
         transform="scale(1.1) rotate(180) translate(1,0)" />
    </marker>
    <marker
       inkscape:stockid="Arrow1Lstart"
       orient="auto"
       refY="0.0"
       refX="0.0"
       id="marker1157"
       style="overflow:visible"
       inkscape:isstock="true">
      <path
         id="path1155"
         d="M 0.0,0.0 L 5.0,-5.0 L -12.5,0.0 L 5.0,5.0 L 0.0,0.0 z "
         style="fill-rule:evenodd;stroke:#f2f2f2;stroke-width:1pt;stroke-opacity:1;fill:#f2f2f2;fill-opacity:1"
         transform="scale(0.8) translate(12.5,0)" />
    </marker>
    <marker
       inkscape:stockid="Arrow2Lstart"
       orient="auto"
       refY="0.0"
       refX="0.0"
       id="Arrow2Lstart"
       style="overflow:visible"
       inkscape:isstock="true">
      <path
         id="path865"
         style="fill-rule:evenodd;stroke-width:0.625;stroke-linejoin:round;stroke:#f2f2f2;stroke-opacity:1;fill:#f2f2f2;fill-opacity:1"
         d="M 8.7185878,4.0337352 L -2.2072895,0.016013256 L 8.7185884,-4.0017078 C 6.9730900,-1.6296469 6.9831476,1.6157441 8.7185878,4.0337352 z "
         transform="scale(1.1) translate(1,0)" />
    </marker>
    <marker
       inkscape:stockid="Arrow1Lstart"
       orient="auto"
       refY="0.0"
       refX="0.0"
       id="Arrow1Lstart"
       style="overflow:visible"
       inkscape:isstock="true">
      <path
         id="path847"
         d="M 0.0,0.0 L 5.0,-5.0 L -12.5,0.0 L 5.0,5.0 L 0.0,0.0 z "
         style="fill-rule:evenodd;stroke:#f2f2f2;stroke-width:1pt;stroke-opacity:1;fill:#f2f2f2;fill-opacity:1"
         transform="scale(0.8) translate(12.5,0)" />
    </marker>
    <inkscape:path-effect
       effect="envelope"
       id="path-effect4658"
       is_visible="true"
       yy="true"
       xx="true"
       bendpath1="m -199.08406,108.42369 h 7.0057"
       bendpath2="m -192.07836,108.42369 v 6.75242"
       bendpath3="m -199.08406,115.17611 h 7.0057"
       bendpath4="m -199.08406,108.42369 v 6.75242" />
    <inkscape:path-effect
       effect="bend_path"
       id="path-effect4656"
       is_visible="true"
       bendpath="m -192.00142,114.60623 c 2.12577,-0.53066 4.48261,0.85111 7.0057,0"
       prop_scale="1"
       scale_y_rel="false"
       vertical="false"
       bendpath-nodetypes="cc" />
    <inkscape:path-effect
       effect="bounding_box"
       id="path-effect4654"
       is_visible="true"
       linkedpath=""
       visualbounds="false" />
    <marker
       inkscape:stockid="Arrow1Send"
       orient="auto"
       refY="0"
       refX="0"
       id="Arrow1Send-7"
       style="overflow:visible"
       inkscape:isstock="true">
      <path
         inkscape:connector-curvature="0"
         id="path862-3"
         d="M 0,0 5,-5 -12.5,0 5,5 Z"
         style="fill:#f2f2f2;fill-opacity:1;fill-rule:evenodd;stroke:#f2f2f2;stroke-width:1.00000003pt;stroke-opacity:1"
         transform="matrix(-0.2,0,0,-0.2,-1.2,0)" />
    </marker>
    <marker
       inkscape:stockid="Arrow1Send"
       orient="auto"
       refY="0"
       refX="0"
       id="Arrow1Send-4"
       style="overflow:visible"
       inkscape:isstock="true">
      <path
         inkscape:connector-curvature="0"
         id="path862-7"
         d="M 0,0 5,-5 -12.5,0 5,5 Z"
         style="fill:url(#Strips1_1);fill-opacity:1;fill-rule:evenodd;stroke:#f2f2f2;stroke-width:1.00000003pt;stroke-opacity:1"
         transform="matrix(-0.2,0,0,-0.2,-1.2,0)" />
    </marker>
    <marker
       inkscape:stockid="Arrow1Send"
       orient="auto"
       refY="0"
       refX="0"
       id="Arrow1Send-4-7"
       style="overflow:visible"
       inkscape:isstock="true">
      <path
         inkscape:connector-curvature="0"
         id="path862-7-2"
         d="M 0,0 5,-5 -12.5,0 5,5 Z"
         style="fill:#f2f2f2;fill-opacity:1;fill-rule:evenodd;stroke:#f2f2f2;stroke-width:1.00000003pt;stroke-opacity:1"
         transform="matrix(-0.2,0,0,-0.2,-1.2,0)" />
    </marker>
    <marker
       inkscape:stockid="Arrow1Send"
       orient="auto"
       refY="0"
       refX="0"
       id="Arrow1Send-1"
       style="overflow:visible"
       inkscape:isstock="true">
      <path
         inkscape:connector-curvature="0"
         id="path862-6"
         d="M 0,0 5,-5 -12.5,0 5,5 Z"
         style="fill:#f2f2f2;fill-opacity:1;fill-rule:evenodd;stroke:#f2f2f2;stroke-width:1.00000003pt;stroke-opacity:1"
         transform="matrix(-0.2,0,0,-0.2,-1.2,0)" />
    </marker>
  </defs>
  <sodipodi:namedview
     id="base"
     pagecolor="#ffffff"
     bordercolor="#666666"
     borderopacity="1.0"
     inkscape:pageopacity="0.0"
     inkscape:pageshadow="2"
     inkscape:zoom="2.8284271"
     inkscape:cx="-33.64664"
     inkscape:cy="105.07799"
     inkscape:document-units="px"
     inkscape:current-layer="layer6"
     showgrid="false"
     fit-margin-top="0"
     fit-margin-left="0"
     fit-margin-right="0"
     fit-margin-bottom="0"
     inkscape:window-width="1920"
     inkscape:window-height="1015"
     inkscape:window-x="0"
     inkscape:window-y="0"
     inkscape:window-maximized="1"
     showguides="true"
     inkscape:object-nodes="false"
     units="px" />
  <metadata
     id="metadata5">
    <rdf:RDF>
      <cc:Work
         rdf:about="">
        <dc:format>image/svg+xml</dc:format>
        <dc:type
           rdf:resource="http://purl.org/dc/dcmitype/StillImage" />
        <dc:title />
      </cc:Work>
    </rdf:RDF>
  </metadata>
  <g
     inkscape:groupmode="layer"
     id="layer5"
     inkscape:label="background">
    <rect
       transform="scale(2)"
       y="-1.110223e-16"
       x="0"
       height="26.458334"
       width="26.458334"
       id="rect4485"
       style="stroke-width:0.25003125;opacity:1;fill:#1a1a1a;fill-opacity:1;fill-rule:nonzero;stroke:#1a1a1a;stroke-linecap:butt;stroke-linejoin:round;stroke-miterlimit:4;stroke-dasharray:none;stroke-dashoffset:0;stroke-opacity:0.90944878;paint-order:normal"
       rx="1.984375"
       ry="1.984375" />
  </g>
  <g
     inkscape:groupmode="layer"
     id="layer8"
     inkscape:label="icon-bg">
    <rect
       style="stroke-width:0.25;opacity:1;fill:#f2f2f2;fill-opacity:1;fill-rule:nonzero;stroke:#1a1a1a;stroke-linecap:butt;stroke-linejoin:round;stroke-miterlimit:4;stroke-dasharray:none;stroke-dashoffset:0;stroke-opacity:0.90944878;paint-order:normal"
       id="rect4487"
       width="23.8125"
       height="23.8125"
       x="0.529167"
       y="0.13229197"
       rx="1.3229166"
       ry="1.3229166"
       transform="matrix(2,0,0,2,1.5875,2.38125)" />
  </g>
  <g
     inkscape:label="icon"
     inkscape:groupmode="layer"
     id="layer1"
     transform="translate(39.608708,-92.411388)"
     style="">
    <path
       style="fill:none;stroke:#1a1a1a;stroke-width:1.32291663;stroke-linecap:butt;stroke-linejoin:miter;stroke-miterlimit:4;stroke-dasharray:none;stroke-opacity:1"
       d="m -17.81288,110.09393 v 20.11203"
       id="path1058"
       inkscape:connector-curvature="0" />
    <path
       inkscape:connector-curvature="0"
       id="path1060"
       d="m -10.105804,118.84492 v 13.22917"
       style="fill:none;stroke:#1a1a1a;stroke-width:1.32291663;stroke-linecap:butt;stroke-linejoin:miter;stroke-miterlimit:4;stroke-dasharray:none;stroke-opacity:1" />
    <path
       style="fill:none;stroke:#1a1a1a;stroke-width:1.32291667;stroke-linecap:butt;stroke-linejoin:miter;stroke-miterlimit:4;stroke-dasharray:0.66145834, 0.66145834000000003;stroke-dashoffset:0.79375;stroke-opacity:1"
       d="m -27.073767,119.57125 c 0.374177,4.58368 6.63748,4.60603 10.383422,4.86431 3.745942,0.25828 11.412408,1.59026 12.441396,7.5771"
       id="path1068"
       inkscape:connector-curvature="0"
       sodipodi:nodetypes="czc" />
    <path
       sodipodi:nodetypes="czc"
       inkscape:connector-curvature="0"
       id="path1070"
       d="m -23.612627,132.94809 c 0.280633,-8.2319 7.350981,-8.85886 12.593633,-9.53601 5.2426511,-0.67716 9.576374,-1.5609 10.32472904,-10.54116"
       style="fill:none;stroke:#1a1a1a;stroke-width:1.32291663;stroke-linecap:butt;stroke-linejoin:miter;stroke-miterlimit:4;stroke-dasharray:0.66145834, 0.66145834000000003;stroke-dashoffset:0;stroke-opacity:1" />
    <rect
       style="opacity:1;fill:#f2f2f2;fill-opacity:1;stroke:#1a1a1a;stroke-width:1.32291663;stroke-linecap:butt;stroke-linejoin:miter;stroke-miterlimit:4;stroke-dasharray:none;stroke-dashoffset:21;stroke-opacity:1;paint-order:normal"
       id="rect1186"
       width="6.0854168"
       height="6.0854168"
       x="-20.917034"
       y="101.93565" />
    <rect
       y="112.57035"
       x="-29.835842"
       height="5.5562501"
       width="5.5562501"
       id="rect1062"
       style="opacity:1;fill:#1a1a1a;fill-opacity:1;stroke:#1a1a1a;stroke-width:1.32291663;stroke-linecap:butt;stroke-linejoin:miter;stroke-miterlimit:4;stroke-dasharray:none;stroke-dashoffset:21;stroke-opacity:1;paint-order:normal" />
    <path
       sodipodi:nodetypes="ccccccc"
       inkscape:connector-curvature="0"
       id="path1105"
       d="m -13.891803,109.98707 v 7.40833 h 7.408332 v -3.70417 h -3.704168 v -3.70416 z"
       style="fill:#1a1a1a;stroke:#1a1a1a;stroke-width:0;stroke-linecap:butt;stroke-linejoin:miter;stroke-miterlimit:4;stroke-dasharray:none;stroke-opacity:1" />
    <path
       style="fill:#f2f2f2;stroke:#1a1a1a;stroke-width:1.32291663;stroke-linecap:butt;stroke-linejoin:miter;stroke-miterlimit:4;stroke-dasharray:none;stroke-opacity:1"
       d="m -4.1631931,105.2617 v 6.61458 h 6.6145834 v -3.30729 h -3.30729242 v -3.30729 z"
       id="path1071"
       inkscape:connector-curvature="0"
       sodipodi:nodetypes="ccccccc" />
  </g>
  <g
     inkscape:groupmode="layer"
     id="layer4"
     inkscape:label="word_bg">
    <path
       style="opacity:1;fill:#1a1a1a;fill-opacity:1;fill-rule:nonzero;stroke:none;stroke-width:0.49468067;stroke-linecap:butt;stroke-linejoin:round;stroke-miterlimit:4;stroke-dasharray:none;stroke-dashoffset:0;stroke-opacity:0.90944878;paint-order:normal"
       d="m 1.4552094,37.041672 v 8.334376 c 0,3.078162 2.4780879,5.556248 5.5562506,5.556248 h 38.893751 c 3.078163,0 5.55625,-2.478086 5.55625,-5.556248 v -8.334376 z"
       id="rect5205-3"
       inkscape:connector-curvature="0" />
  </g>
  <g
     inkscape:groupmode="layer"
     id="layer6"
     inkscape:label="word">
    <g
       aria-label="OBSTINATE"
       style="font-style:normal;font-weight:normal;font-size:10.58333397px;line-height:1.25;font-family:sans-serif;letter-spacing:0px;word-spacing:0px;fill:#f2f2f2;fill-opacity:1;stroke:#f2f2f2;stroke-width:0.39687499;stroke-miterlimit:4;stroke-dasharray:none"
       id="text826">
      <path
         d="m 7.1563857,47.46625 q 0.4233333,0 0.6985,-0.179916 0.28575,-0.1905 0.4656667,-0.486834 0.1799167,-0.296333 0.2645834,-0.677333 0.09525,-0.381 0.127,-0.772584 0.042333,-0.391583 0.042333,-0.762 0.010583,-0.370416 0.010583,-0.656166 0,-0.28575 -0.010583,-0.66675 0,-0.381 -0.052917,-0.772584 Q 8.6592191,42.1005 8.5533858,41.7195 q -0.09525,-0.381 -0.2857501,-0.677333 -0.1799166,-0.306917 -0.47625,-0.486834 -0.28575,-0.179917 -0.7090834,-0.179917 -0.4021667,0 -0.6773333,0.179917 -0.2751667,0.179917 -0.4550834,0.47625 -0.1693333,0.28575 -0.2751667,0.656167 -0.09525,0.370417 -0.1375833,0.762 -0.042333,0.381 -0.052917,0.751417 -0.010583,0.370416 -0.010583,0.656166 0,0.306917 0,0.6985 0.010583,0.381 0.042333,0.783167 0.042333,0.391583 0.1375833,0.783167 0.1058334,0.381 0.2857501,0.677333 0.1905,0.296334 0.4868333,0.486834 0.2963334,0.179916 0.7302501,0.179916 z m -0.0635,0.613834 q -0.5715001,0 -0.9736668,-0.201084 -0.3915833,-0.211666 -0.6455833,-0.560916 -0.254,-0.34925 -0.4021667,-0.79375 -0.1375834,-0.455084 -0.2010834,-0.941917 -0.0635,-0.486834 -0.074083,-0.973667 -0.010583,-0.486833 -0.010583,-0.910167 0,-0.613833 0.0635,-1.30175 0.074083,-0.687916 0.3069166,-1.27 0.2434167,-0.592667 0.6985001,-0.973667 0.4656667,-0.391583 1.2594167,-0.391583 0.5820834,0 0.9842501,0.201083 0.4021667,0.201084 0.6561667,0.53975 0.2645833,0.338667 0.4021667,0.783167 0.1375833,0.433917 0.2010833,0.92075 0.074083,0.47625 0.084667,0.963084 0.010583,0.486833 0.010583,0.92075 0,0.645583 -0.052917,1.354666 -0.052917,0.6985 -0.28575,1.291167 -0.2328334,0.582084 -0.7090834,0.963084 -0.4762501,0.381 -1.3123334,0.381 z"
         style="font-style:normal;font-variant:normal;font-weight:normal;font-stretch:normal;font-family:'Helvetica LT CondensedLight';-inkscape-font-specification:'Helvetica LT CondensedLight';fill:#f2f2f2;fill-opacity:1;stroke:#f2f2f2;stroke-width:0.39687499;stroke-miterlimit:4;stroke-dasharray:none"
         id="path1056" />
      <path
         d="m 12.109384,43.423417 q 0.423333,0 0.762,-0.05292 0.338666,-0.0635 0.5715,-0.22225 Q 13.6863,42.978917 13.8133,42.682583 13.950884,42.38625 13.950884,41.91 q 0,-0.465667 -0.15875,-0.73025 -0.148167,-0.275167 -0.41275,-0.402167 -0.254,-0.137583 -0.60325,-0.169333 -0.338667,-0.04233 -0.73025,-0.04233 H 11.4003 v 2.857501 z M 11.4003,44.03725 v 3.2385 h 0.85725 q 0.455084,0 0.804334,-0.07408 0.359833,-0.07408 0.60325,-0.254 0.254,-0.1905 0.381,-0.518584 0.127,-0.328083 0.127,-0.836083 0,-0.53975 -0.15875,-0.846667 -0.15875,-0.306916 -0.433917,-0.465666 Q 13.3053,44.121917 12.9243,44.079583 12.553884,44.03725 12.119967,44.03725 Z m -0.687917,3.852334 v -7.937501 h 1.735667 q 0.402167,0 0.836084,0.07408 0.433916,0.07408 0.751416,0.359834 0.328084,0.28575 0.465667,0.677333 0.137583,0.381 0.137583,0.8255 0,0.592667 -0.254,1.090084 -0.243416,0.497416 -0.8255,0.709083 v 0.02117 q 0.687917,0.179916 0.994834,0.687916 0.306916,0.508 0.306916,1.2065 0,0.751417 -0.243416,1.206501 -0.232834,0.455083 -0.645584,0.6985 -0.41275,0.232833 -0.973666,0.306916 -0.550334,0.07408 -1.195917,0.07408 z"
         style="font-style:normal;font-variant:normal;font-weight:normal;font-stretch:normal;font-family:'Helvetica LT CondensedLight';-inkscape-font-specification:'Helvetica LT CondensedLight';fill:#f2f2f2;fill-opacity:1;stroke:#f2f2f2;stroke-width:0.39687499;stroke-miterlimit:4;stroke-dasharray:none"
         id="path1059" />
      <path
         d="m 18.19478,43.561 q 0.433917,0.179917 0.804333,0.359833 0.381,0.179917 0.645584,0.433917 0.275166,0.243417 0.423333,0.60325 0.15875,0.34925 0.15875,0.889 0,0.508 -0.15875,0.92075 -0.15875,0.41275 -0.455083,0.709084 -0.296334,0.28575 -0.719667,0.4445 -0.423333,0.15875 -0.941917,0.15875 -0.53975,0 -0.9525,-0.179917 -0.41275,-0.179917 -0.6985,-0.508 -0.275166,-0.328083 -0.41275,-0.772583 -0.127,-0.444501 -0.116416,-0.973667 h 0.677333 q 0,0.370416 0.07408,0.709083 0.08467,0.328084 0.254,0.582084 0.179917,0.243416 0.465667,0.391583 0.28575,0.137583 0.6985,0.137583 0.73025,0 1.164167,-0.423333 0.433916,-0.433917 0.433916,-1.17475 0,-0.4445 -0.148166,-0.719667 -0.148167,-0.28575 -0.402167,-0.465667 -0.243417,-0.179916 -0.5715,-0.296333 -0.3175,-0.127 -0.656167,-0.264583 -0.402166,-0.15875 -0.740833,-0.338667 -0.328083,-0.179917 -0.5715,-0.423333 -0.243417,-0.254 -0.381,-0.592667 -0.137583,-0.338667 -0.137583,-0.814917 0,-0.486833 0.137583,-0.889 0.148167,-0.402167 0.41275,-0.687917 0.264583,-0.296333 0.645583,-0.455083 0.381,-0.15875 0.867834,-0.15875 0.465666,0 0.836083,0.15875 0.381,0.148167 0.645583,0.433917 0.275167,0.275166 0.41275,0.66675 0.137584,0.381 0.127,0.846667 h -0.66675 q 0.03175,-0.66675 -0.338666,-1.079501 -0.359834,-0.41275 -1.026584,-0.41275 -0.338666,0 -0.592666,0.116417 -0.254,0.116417 -0.433917,0.328083 -0.169333,0.201084 -0.254,0.486834 -0.08467,0.275167 -0.08467,0.60325 0,0.296333 0.05292,0.508 0.05292,0.211667 0.15875,0.370417 0.116417,0.15875 0.296333,0.28575 0.1905,0.116416 0.455084,0.232833 z"
         style="font-style:normal;font-variant:normal;font-weight:normal;font-stretch:normal;font-family:'Helvetica LT CondensedLight';-inkscape-font-specification:'Helvetica LT CondensedLight';fill:#f2f2f2;fill-opacity:1;stroke:#f2f2f2;stroke-width:0.39687499;stroke-miterlimit:4;stroke-dasharray:none"
         id="path1061" />
      <path
         d="m 20.851177,40.565916 v -0.613833 h 4.28625 v 0.613833 H 23.33826 v 7.323668 h -0.687916 v -7.323668 z"
         style="font-style:normal;font-variant:normal;font-weight:normal;font-stretch:normal;font-family:'Helvetica LT CondensedLight';-inkscape-font-specification:'Helvetica LT CondensedLight';fill:#f2f2f2;fill-opacity:1;stroke:#f2f2f2;stroke-width:0.39687499;stroke-miterlimit:4;stroke-dasharray:none"
         id="path1063" />
      <path
         d="m 26.174576,47.889584 v -7.937501 h 0.687916 v 7.937501 z"
         style="font-style:normal;font-variant:normal;font-weight:normal;font-stretch:normal;font-family:'Helvetica LT CondensedLight';-inkscape-font-specification:'Helvetica LT CondensedLight';fill:#f2f2f2;fill-opacity:1;stroke:#f2f2f2;stroke-width:0.39687499;stroke-miterlimit:4;stroke-dasharray:none"
         id="path1065" />
      <path
         d="m 32.164724,46.76775 h 0.02117 v -6.815667 h 0.687917 v 7.937501 h -0.836084 l -2.942167,-6.794501 h -0.02117 v 6.794501 h -0.687917 v -7.937501 h 0.85725 z"
         style="font-style:normal;font-variant:normal;font-weight:normal;font-stretch:normal;font-family:'Helvetica LT CondensedLight';-inkscape-font-specification:'Helvetica LT CondensedLight';fill:#f2f2f2;fill-opacity:1;stroke:#f2f2f2;stroke-width:0.39687499;stroke-miterlimit:4;stroke-dasharray:none"
         id="path1067" />
      <path
         d="m 37.276474,44.831 -1.047751,-4.011084 h -0.02117 L 35.159807,44.831 Z m -0.656167,-4.878917 2.12725,7.937501 h -0.6985 L 37.42464,45.444833 h -2.413 l -0.645583,2.444751 h -0.66675 l 2.12725,-7.937501 z"
         style="font-style:normal;font-variant:normal;font-weight:normal;font-stretch:normal;font-family:'Helvetica LT CondensedLight';-inkscape-font-specification:'Helvetica LT CondensedLight';fill:#f2f2f2;fill-opacity:1;stroke:#f2f2f2;stroke-width:0.39687499;stroke-miterlimit:4;stroke-dasharray:none"
         id="path1072" />
      <path
         d="m 38.493534,40.565916 v -0.613833 h 4.28625 v 0.613833 h -1.799167 v 7.323668 H 40.2927 v -7.323668 z"
         style="font-style:normal;font-variant:normal;font-weight:normal;font-stretch:normal;font-family:'Helvetica LT CondensedLight';-inkscape-font-specification:'Helvetica LT CondensedLight';fill:#f2f2f2;fill-opacity:1;stroke:#f2f2f2;stroke-width:0.39687499;stroke-miterlimit:4;stroke-dasharray:none"
         id="path1074" />
      <path
         d="m 43.689933,47.889584 v -7.937501 h 3.598333 v 0.613833 h -2.910417 v 2.857501 h 2.645834 v 0.613833 h -2.645834 v 3.2385 h 2.963334 v 0.613834 z"
         style="font-style:normal;font-variant:normal;font-weight:normal;font-stretch:normal;font-family:'Helvetica LT CondensedLight';-inkscape-font-specification:'Helvetica LT CondensedLight';fill:#f2f2f2;fill-opacity:1;stroke:#f2f2f2;stroke-width:0.39687499;stroke-miterlimit:4;stroke-dasharray:none"
         id="path1076" />
    </g>
  </g>
</svg>
