<?xml version="1.0" encoding="UTF-8" standalone="no"?>
<!-- Created with Inkscape (http://www.inkscape.org/) -->

<svg
   xmlns:dc="http://purl.org/dc/elements/1.1/"
   xmlns:cc="http://creativecommons.org/ns#"
   xmlns:rdf="http://www.w3.org/1999/02/22-rdf-syntax-ns#"
   xmlns:svg="http://www.w3.org/2000/svg"
   xmlns="http://www.w3.org/2000/svg"
   xmlns:sodipodi="http://sodipodi.sourceforge.net/DTD/sodipodi-0.dtd"
   xmlns:inkscape="http://www.inkscape.org/namespaces/inkscape"
   width="200"
   height="200"
   viewBox="0 0 52.916668 52.916666"
   version="1.1"
   id="svg8"
   inkscape:version="0.92.5 (2060ec1f9f, 2020-04-08)"
   sodipodi:docname="questioning.svg"
   enable-background="new">
  <defs
     id="defs2">
    <pattern
       inkscape:isstock="true"
       inkscape:stockid="Stripes 1:1"
       id="Strips1_1"
       patternTransform="translate(0,0) scale(10,10)"
       height="1"
       width="2"
       patternUnits="userSpaceOnUse"
       inkscape:collect="always">
      <rect
         id="rect1744"
         height="2"
         width="1"
         y="-0.5"
         x="0"
         style="fill:black;stroke:none" />
    </pattern>
    <marker
       inkscape:stockid="Arrow1Send"
       orient="auto"
       refY="0.0"
       refX="0.0"
       id="Arrow1Send"
       style="overflow:visible;"
       inkscape:isstock="true">
      <path
         id="path862"
         d="M 0.0,0.0 L 5.0,-5.0 L -12.5,0.0 L 5.0,5.0 L 0.0,0.0 z "
         style="fill-rule:evenodd;stroke:#f2f2f2;stroke-width:1pt;stroke-opacity:1;fill:#f2f2f2;fill-opacity:1"
         transform="scale(0.2) rotate(180) translate(6,0)" />
    </marker>
    <marker
       inkscape:stockid="Arrow1Mend"
       orient="auto"
       refY="0.0"
       refX="0.0"
       id="Arrow1Mend"
       style="overflow:visible;"
       inkscape:isstock="true">
      <path
         id="path856"
         d="M 0.0,0.0 L 5.0,-5.0 L -12.5,0.0 L 5.0,5.0 L 0.0,0.0 z "
         style="fill-rule:evenodd;stroke:#f2f2f2;stroke-width:1pt;stroke-opacity:1;fill:#f2f2f2;fill-opacity:1"
         transform="scale(0.4) rotate(180) translate(10,0)" />
    </marker>
    <marker
       inkscape:stockid="Arrow1Lstart"
       orient="auto"
       refY="0.0"
       refX="0.0"
       id="marker1285"
       style="overflow:visible"
       inkscape:isstock="true">
      <path
         id="path1283"
         d="M 0.0,0.0 L 5.0,-5.0 L -12.5,0.0 L 5.0,5.0 L 0.0,0.0 z "
         style="fill-rule:evenodd;stroke:#f2f2f2;stroke-width:1pt;stroke-opacity:1;fill:#f2f2f2;fill-opacity:1"
         transform="scale(0.8) translate(12.5,0)" />
    </marker>
    <marker
       inkscape:stockid="Arrow1Lend"
       orient="auto"
       refY="0.0"
       refX="0.0"
       id="Arrow1Lend"
       style="overflow:visible;"
       inkscape:isstock="true">
      <path
         id="path850"
         d="M 0.0,0.0 L 5.0,-5.0 L -12.5,0.0 L 5.0,5.0 L 0.0,0.0 z "
         style="fill-rule:evenodd;stroke:#f2f2f2;stroke-width:1pt;stroke-opacity:1;fill:#f2f2f2;fill-opacity:1"
         transform="scale(0.8) rotate(180) translate(12.5,0)" />
    </marker>
    <marker
       inkscape:stockid="Arrow2Lend"
       orient="auto"
       refY="0.0"
       refX="0.0"
       id="Arrow2Lend"
       style="overflow:visible;"
       inkscape:isstock="true">
      <path
         id="path868"
         style="fill-rule:evenodd;stroke-width:0.625;stroke-linejoin:round;stroke:#f2f2f2;stroke-opacity:1;fill:#f2f2f2;fill-opacity:1"
         d="M 8.7185878,4.0337352 L -2.2072895,0.016013256 L 8.7185884,-4.0017078 C 6.9730900,-1.6296469 6.9831476,1.6157441 8.7185878,4.0337352 z "
         transform="scale(1.1) rotate(180) translate(1,0)" />
    </marker>
    <marker
       inkscape:stockid="Arrow1Lstart"
       orient="auto"
       refY="0.0"
       refX="0.0"
       id="marker1157"
       style="overflow:visible"
       inkscape:isstock="true">
      <path
         id="path1155"
         d="M 0.0,0.0 L 5.0,-5.0 L -12.5,0.0 L 5.0,5.0 L 0.0,0.0 z "
         style="fill-rule:evenodd;stroke:#f2f2f2;stroke-width:1pt;stroke-opacity:1;fill:#f2f2f2;fill-opacity:1"
         transform="scale(0.8) translate(12.5,0)" />
    </marker>
    <marker
       inkscape:stockid="Arrow2Lstart"
       orient="auto"
       refY="0.0"
       refX="0.0"
       id="Arrow2Lstart"
       style="overflow:visible"
       inkscape:isstock="true">
      <path
         id="path865"
         style="fill-rule:evenodd;stroke-width:0.625;stroke-linejoin:round;stroke:#f2f2f2;stroke-opacity:1;fill:#f2f2f2;fill-opacity:1"
         d="M 8.7185878,4.0337352 L -2.2072895,0.016013256 L 8.7185884,-4.0017078 C 6.9730900,-1.6296469 6.9831476,1.6157441 8.7185878,4.0337352 z "
         transform="scale(1.1) translate(1,0)" />
    </marker>
    <marker
       inkscape:stockid="Arrow1Lstart"
       orient="auto"
       refY="0.0"
       refX="0.0"
       id="Arrow1Lstart"
       style="overflow:visible"
       inkscape:isstock="true">
      <path
         id="path847"
         d="M 0.0,0.0 L 5.0,-5.0 L -12.5,0.0 L 5.0,5.0 L 0.0,0.0 z "
         style="fill-rule:evenodd;stroke:#f2f2f2;stroke-width:1pt;stroke-opacity:1;fill:#f2f2f2;fill-opacity:1"
         transform="scale(0.8) translate(12.5,0)" />
    </marker>
    <inkscape:path-effect
       effect="envelope"
       id="path-effect4658"
       is_visible="true"
       yy="true"
       xx="true"
       bendpath1="m -199.08406,108.42369 h 7.0057"
       bendpath2="m -192.07836,108.42369 v 6.75242"
       bendpath3="m -199.08406,115.17611 h 7.0057"
       bendpath4="m -199.08406,108.42369 v 6.75242" />
    <inkscape:path-effect
       effect="bend_path"
       id="path-effect4656"
       is_visible="true"
       bendpath="m -192.00142,114.60623 c 2.12577,-0.53066 4.48261,0.85111 7.0057,0"
       prop_scale="1"
       scale_y_rel="false"
       vertical="false"
       bendpath-nodetypes="cc" />
    <inkscape:path-effect
       effect="bounding_box"
       id="path-effect4654"
       is_visible="true"
       linkedpath=""
       visualbounds="false" />
    <marker
       inkscape:stockid="Arrow1Send"
       orient="auto"
       refY="0"
       refX="0"
       id="Arrow1Send-7"
       style="overflow:visible"
       inkscape:isstock="true">
      <path
         inkscape:connector-curvature="0"
         id="path862-3"
         d="M 0,0 5,-5 -12.5,0 5,5 Z"
         style="fill:#f2f2f2;fill-opacity:1;fill-rule:evenodd;stroke:#f2f2f2;stroke-width:1.00000003pt;stroke-opacity:1"
         transform="matrix(-0.2,0,0,-0.2,-1.2,0)" />
    </marker>
    <marker
       inkscape:stockid="Arrow1Send"
       orient="auto"
       refY="0"
       refX="0"
       id="Arrow1Send-4"
       style="overflow:visible"
       inkscape:isstock="true">
      <path
         inkscape:connector-curvature="0"
         id="path862-7"
         d="M 0,0 5,-5 -12.5,0 5,5 Z"
         style="fill:url(#Strips1_1);fill-opacity:1;fill-rule:evenodd;stroke:#f2f2f2;stroke-width:1.00000003pt;stroke-opacity:1"
         transform="matrix(-0.2,0,0,-0.2,-1.2,0)" />
    </marker>
    <marker
       inkscape:stockid="Arrow1Send"
       orient="auto"
       refY="0"
       refX="0"
       id="Arrow1Send-4-7"
       style="overflow:visible"
       inkscape:isstock="true">
      <path
         inkscape:connector-curvature="0"
         id="path862-7-2"
         d="M 0,0 5,-5 -12.5,0 5,5 Z"
         style="fill:#f2f2f2;fill-opacity:1;fill-rule:evenodd;stroke:#f2f2f2;stroke-width:1.00000003pt;stroke-opacity:1"
         transform="matrix(-0.2,0,0,-0.2,-1.2,0)" />
    </marker>
    <marker
       inkscape:stockid="Arrow1Send"
       orient="auto"
       refY="0"
       refX="0"
       id="Arrow1Send-1"
       style="overflow:visible"
       inkscape:isstock="true">
      <path
         inkscape:connector-curvature="0"
         id="path862-6"
         d="M 0,0 5,-5 -12.5,0 5,5 Z"
         style="fill:#f2f2f2;fill-opacity:1;fill-rule:evenodd;stroke:#f2f2f2;stroke-width:1.00000003pt;stroke-opacity:1"
         transform="matrix(-0.2,0,0,-0.2,-1.2,0)" />
    </marker>
  </defs>
  <sodipodi:namedview
     id="base"
     pagecolor="#ffffff"
     bordercolor="#666666"
     borderopacity="1.0"
     inkscape:pageopacity="0.0"
     inkscape:pageshadow="2"
     inkscape:zoom="2.16"
     inkscape:cx="98.977505"
     inkscape:cy="33.781694"
     inkscape:document-units="px"
     inkscape:current-layer="layer6"
     showgrid="false"
     fit-margin-top="0"
     fit-margin-left="0"
     fit-margin-right="0"
     fit-margin-bottom="0"
     inkscape:window-width="1920"
     inkscape:window-height="1015"
     inkscape:window-x="0"
     inkscape:window-y="0"
     inkscape:window-maximized="1"
     showguides="true"
     inkscape:object-nodes="false"
     units="px" />
  <metadata
     id="metadata5">
    <rdf:RDF>
      <cc:Work
         rdf:about="">
        <dc:format>image/svg+xml</dc:format>
        <dc:type
           rdf:resource="http://purl.org/dc/dcmitype/StillImage" />
        <dc:title />
      </cc:Work>
    </rdf:RDF>
  </metadata>
  <g
     inkscape:groupmode="layer"
     id="layer5"
     inkscape:label="background">
    <rect
       transform="scale(2)"
       y="-1.110223e-16"
       x="0"
       height="26.458334"
       width="26.458334"
       id="rect4485"
       style="stroke-width:0.25003125;opacity:1;fill:#1a1a1a;fill-opacity:1;fill-rule:nonzero;stroke:#1a1a1a;stroke-linecap:butt;stroke-linejoin:round;stroke-miterlimit:4;stroke-dasharray:none;stroke-dashoffset:0;stroke-opacity:0.90944878;paint-order:normal"
       rx="1.984375"
       ry="1.984375" />
  </g>
  <g
     inkscape:groupmode="layer"
     id="layer8"
     inkscape:label="icon-bg">
    <rect
       style="stroke-width:0.25;opacity:1;fill:#1a1a1a;fill-opacity:1;fill-rule:nonzero;stroke:#1a1a1a;stroke-linecap:butt;stroke-linejoin:round;stroke-miterlimit:4;stroke-dasharray:none;stroke-dashoffset:0;stroke-opacity:0.90944878;paint-order:normal"
       id="rect4487"
       width="23.8125"
       height="23.8125"
       x="0.529167"
       y="0.13229197"
       rx="1.3229166"
       ry="1.3229166"
       transform="matrix(2,0,0,2,1.5875,2.38125)" />
    <path
       sodipodi:type="star"
       style="opacity:1;fill:none;fill-opacity:1;stroke:#f2f2f2;stroke-width:2.30256748;stroke-linecap:butt;stroke-linejoin:bevel;stroke-miterlimit:4;stroke-dasharray:2.30256748,6.90770243;stroke-dashoffset:9.6707834;stroke-opacity:1;paint-order:normal"
       id="path1015"
       sodipodi:sides="9"
       sodipodi:cx="25.256973"
       sodipodi:cy="19.334251"
       sodipodi:r1="15.033014"
       sodipodi:r2="7.5165071"
       sodipodi:arg1="0.67959999"
       sodipodi:arg2="1.0286658"
       inkscape:flatsided="false"
       inkscape:rounded="0"
       inkscape:randomized="0"
       d="m 36.950015,28.782229 -7.814808,-3.009252 -0.993887,8.314988 -4.05218,-7.328483 -6.106133,5.730792 1.606508,-8.218635 -8.361252,0.465095 6.513494,-5.263197 -6.704048,-5.018225 8.372743,0.154951 -1.909945,-8.1534627 6.314293,5.5005947 3.777841,-7.473604 1.301315,8.272449 7.697935,-3.2967629 -4.320563,7.1735329 8.016078,2.42267 -7.920801,2.718041 z"
       transform="matrix(1.2389841,0,0,0.52219252,-4.5407101,15.52379)" />
    <text
       xml:space="preserve"
       style="font-style:normal;font-weight:normal;font-size:10.58333302px;line-height:1.25;font-family:sans-serif;letter-spacing:0px;word-spacing:0px;fill:#000000;fill-opacity:1;stroke:none;stroke-width:0.26458332"
       x="-30.495453"
       y="19.053617"
       id="text1019"><tspan
         sodipodi:role="line"
         id="tspan1017"
         x="-30.495453"
         y="28.417387"
         style="stroke-width:0.26458332" /></text>
  </g>
  <g
     inkscape:label="icon"
     inkscape:groupmode="layer"
     id="layer1"
     transform="translate(39.608708,-92.411388)"
     style="" />
  <g
     inkscape:groupmode="layer"
     id="layer4"
     inkscape:label="word_bg">
    <path
       style="opacity:1;fill:#f2f2f2;fill-opacity:1;fill-rule:nonzero;stroke:none;stroke-width:0.49468067;stroke-linecap:butt;stroke-linejoin:round;stroke-miterlimit:4;stroke-dasharray:none;stroke-dashoffset:0;stroke-opacity:0.90944878;paint-order:normal"
       d="m 1.8908317,37.041672 v 8.334376 c 0,3.078162 2.4256414,5.556248 5.4386576,5.556248 H 45.40009 c 3.013016,0 5.438657,-2.478086 5.438657,-5.556248 v -8.334376 z"
       id="rect5205-3"
       inkscape:connector-curvature="0" />
  </g>
  <g
     inkscape:groupmode="layer"
     id="layer6"
     inkscape:label="word">
    <g
       aria-label="QUESTIONING"
       style="font-style:normal;font-weight:normal;font-size:10.58333397px;line-height:1.25;font-family:sans-serif;letter-spacing:-0.84666669px;word-spacing:0px;fill:#1a1a1a;fill-opacity:1;stroke:#1a1a1a;stroke-width:0.21166667;stroke-miterlimit:4;stroke-dasharray:none"
       id="text826">
      <path
         d="m 5.6088197,46.5455 0.381,-0.47625 0.8043334,0.656167 q 0.1693333,-0.296334 0.254,-0.66675 0.084667,-0.370417 0.1164167,-0.751417 0.042333,-0.381 0.042333,-0.740833 0,-0.359834 0,-0.635 0,-0.28575 -0.010583,-0.66675 0,-0.381 -0.052917,-0.772584 Q 7.1010698,42.1005 6.9952364,41.7195 q -0.09525,-0.381 -0.28575,-0.677333 -0.1799167,-0.306917 -0.47625,-0.486834 -0.28575,-0.179917 -0.7090834,-0.179917 -0.4021667,0 -0.6773334,0.179917 -0.2751667,0.179917 -0.4550833,0.47625 -0.1693334,0.28575 -0.2751667,0.656167 -0.09525,0.370417 -0.1375834,0.762 -0.042333,0.381 -0.052917,0.751417 -0.010583,0.370416 -0.010583,0.656166 0,0.306917 0,0.6985 0.010583,0.381 0.042333,0.783167 0.042333,0.391583 0.1375833,0.783167 0.1058333,0.381 0.28575,0.677333 0.1905,0.296334 0.4868334,0.486834 0.2963333,0.179916 0.73025,0.179916 0.4868334,0 0.8149167,-0.275166 z m 2.5823335,1.322917 -0.3704167,0.465667 -0.8784168,-0.719667 q -0.2434166,0.211667 -0.5926667,0.338667 -0.3386666,0.127 -0.8149167,0.127 -0.5715,0 -0.9736667,-0.201084 -0.3915834,-0.211666 -0.6455834,-0.550333 -0.254,-0.34925 -0.4021667,-0.79375 Q 3.3757362,46.079833 3.3122362,45.593 q -0.0635,-0.486833 -0.074083,-0.973667 -0.010583,-0.486833 -0.010583,-0.910166 0,-0.402167 0.021167,-0.85725 0.03175,-0.455084 0.1164167,-0.889 0.084667,-0.4445 0.2328333,-0.836084 0.15875,-0.402167 0.41275,-0.6985 0.2645834,-0.306917 0.6350001,-0.486833 0.381,-0.179917 0.9101667,-0.179917 0.5820834,0 0.9842501,0.201083 0.4021666,0.201084 0.6561667,0.53975 0.2645833,0.338667 0.4021667,0.783167 0.1375833,0.433917 0.2010833,0.92075 0.074083,0.47625 0.084667,0.963084 0.010583,0.486833 0.010583,0.92075 0,0.381 -0.021167,0.79375 -0.010583,0.41275 -0.074083,0.814916 Q 7.7466531,46.101 7.6302365,46.482 7.5244031,46.852417 7.3233198,47.159334 Z"
         style="font-style:normal;font-variant:normal;font-weight:normal;font-stretch:normal;font-family:'Helvetica LT CondensedLight';-inkscape-font-specification:'Helvetica LT CondensedLight';letter-spacing:-0.84666669px;fill:#1a1a1a;fill-opacity:1;stroke:#1a1a1a;stroke-width:0.21166667;stroke-miterlimit:4;stroke-dasharray:none"
         id="path1016" />
      <path
         d="m 8.4239839,39.952083 h 0.6879168 v 5.757334 q 0,0.423333 0.052917,0.751417 0.0635,0.328083 0.22225,0.550333 0.15875,0.22225 0.4445001,0.338667 0.2857496,0.116416 0.7302496,0.116416 0.465667,0 0.762,-0.127 0.296334,-0.137583 0.455084,-0.381 0.169333,-0.243416 0.232833,-0.5715 0.0635,-0.338667 0.0635,-0.740833 v -5.693834 h 0.687917 v 5.5245 q 0,0.582084 -0.105833,1.058334 -0.09525,0.47625 -0.34925,0.8255 -0.243417,0.338667 -0.666751,0.529167 -0.41275,0.1905 -1.058333,0.1905 -1.143,0 -1.651,-0.592667 -0.5080001,-0.60325 -0.5080001,-1.693334 z"
         style="font-style:normal;font-variant:normal;font-weight:normal;font-stretch:normal;font-family:'Helvetica LT CondensedLight';-inkscape-font-specification:'Helvetica LT CondensedLight';letter-spacing:-0.84666669px;fill:#1a1a1a;fill-opacity:1;stroke:#1a1a1a;stroke-width:0.21166667;stroke-miterlimit:4;stroke-dasharray:none"
         id="path1018" />
      <path
         d="m 13.398148,47.889584 v -7.937501 h 3.598334 v 0.613833 h -2.910417 v 2.857501 h 2.645834 v 0.613833 h -2.645834 v 3.2385 h 2.963334 v 0.613834 z"
         style="font-style:normal;font-variant:normal;font-weight:normal;font-stretch:normal;font-family:'Helvetica LT CondensedLight';-inkscape-font-specification:'Helvetica LT CondensedLight';letter-spacing:-0.84666669px;fill:#1a1a1a;fill-opacity:1;stroke:#1a1a1a;stroke-width:0.21166667;stroke-miterlimit:4;stroke-dasharray:none"
         id="path1020" />
      <path
         d="m 19.388298,43.561 q 0.433916,0.179917 0.804333,0.359833 0.381,0.179917 0.645583,0.433917 0.275167,0.243417 0.423334,0.60325 0.15875,0.34925 0.15875,0.889 0,0.508 -0.15875,0.92075 -0.15875,0.41275 -0.455084,0.709084 -0.296333,0.28575 -0.719666,0.4445 -0.423334,0.15875 -0.941917,0.15875 -0.53975,0 -0.9525,-0.179917 -0.41275,-0.179917 -0.6985,-0.508 -0.275167,-0.328083 -0.41275,-0.772583 -0.127,-0.444501 -0.116417,-0.973667 h 0.677334 q 0,0.370416 0.07408,0.709083 0.08467,0.328084 0.254,0.582084 0.179917,0.243416 0.465667,0.391583 0.28575,0.137583 0.6985,0.137583 0.73025,0 1.164166,-0.423333 0.433917,-0.433917 0.433917,-1.17475 0,-0.4445 -0.148167,-0.719667 -0.148166,-0.28575 -0.402166,-0.465667 -0.243417,-0.179916 -0.5715,-0.296333 -0.3175,-0.127 -0.656167,-0.264583 -0.402167,-0.15875 -0.740833,-0.338667 -0.328084,-0.179917 -0.5715,-0.423333 -0.243417,-0.254 -0.381,-0.592667 -0.137584,-0.338667 -0.137584,-0.814917 0,-0.486833 0.137584,-0.889 0.148166,-0.402167 0.41275,-0.687917 0.264583,-0.296333 0.645583,-0.455083 0.381,-0.15875 0.867833,-0.15875 0.465667,0 0.836084,0.15875 0.381,0.148167 0.645583,0.433917 0.275167,0.275166 0.41275,0.66675 0.137583,0.381 0.127,0.846667 h -0.66675 q 0.03175,-0.66675 -0.338667,-1.079501 -0.359833,-0.41275 -1.026583,-0.41275 -0.338667,0 -0.592667,0.116417 -0.254,0.116417 -0.433916,0.328083 -0.169334,0.201084 -0.254,0.486834 -0.08467,0.275167 -0.08467,0.60325 0,0.296333 0.05292,0.508 0.05292,0.211667 0.15875,0.370417 0.116416,0.15875 0.296333,0.28575 0.1905,0.116416 0.455083,0.232833 z"
         style="font-style:normal;font-variant:normal;font-weight:normal;font-stretch:normal;font-family:'Helvetica LT CondensedLight';-inkscape-font-specification:'Helvetica LT CondensedLight';letter-spacing:-0.84666669px;fill:#1a1a1a;fill-opacity:1;stroke:#1a1a1a;stroke-width:0.21166667;stroke-miterlimit:4;stroke-dasharray:none"
         id="path1022" />
      <path
         d="m 21.198028,40.565916 v -0.613833 h 4.28625 v 0.613833 h -1.799166 v 7.323668 h -0.687917 v -7.323668 z"
         style="font-style:normal;font-variant:normal;font-weight:normal;font-stretch:normal;font-family:'Helvetica LT CondensedLight';-inkscape-font-specification:'Helvetica LT CondensedLight';letter-spacing:-0.84666669px;fill:#1a1a1a;fill-opacity:1;stroke:#1a1a1a;stroke-width:0.21166667;stroke-miterlimit:4;stroke-dasharray:none"
         id="path1024" />
      <path
         d="m 26.174761,47.889584 v -7.937501 h 0.687916 v 7.937501 z"
         style="font-style:normal;font-variant:normal;font-weight:normal;font-stretch:normal;font-family:'Helvetica LT CondensedLight';-inkscape-font-specification:'Helvetica LT CondensedLight';letter-spacing:-0.84666669px;fill:#1a1a1a;fill-opacity:1;stroke:#1a1a1a;stroke-width:0.21166667;stroke-miterlimit:4;stroke-dasharray:none"
         id="path1026" />
      <path
         d="m 29.825993,47.46625 q 0.423333,0 0.6985,-0.179916 0.28575,-0.1905 0.465667,-0.486834 0.179916,-0.296333 0.264583,-0.677333 0.09525,-0.381 0.127,-0.772584 0.04233,-0.391583 0.04233,-0.762 0.01058,-0.370416 0.01058,-0.656166 0,-0.28575 -0.01058,-0.66675 0,-0.381 -0.05292,-0.772584 -0.04233,-0.391583 -0.148167,-0.772583 -0.09525,-0.381 -0.28575,-0.677333 -0.179917,-0.306917 -0.47625,-0.486834 -0.28575,-0.179917 -0.709084,-0.179917 -0.402166,0 -0.677333,0.179917 -0.275167,0.179917 -0.455083,0.47625 -0.169334,0.28575 -0.275167,0.656167 -0.09525,0.370417 -0.137583,0.762 -0.04233,0.381 -0.05292,0.751417 -0.01058,0.370416 -0.01058,0.656166 0,0.306917 0,0.6985 0.01058,0.381 0.04233,0.783167 0.04233,0.391583 0.137583,0.783167 0.105834,0.381 0.28575,0.677333 0.1905,0.296334 0.486834,0.486834 0.296333,0.179916 0.73025,0.179916 z m -0.0635,0.613834 q -0.5715,0 -0.973667,-0.201084 -0.391583,-0.211666 -0.645583,-0.560916 -0.254,-0.34925 -0.402167,-0.79375 -0.137583,-0.455084 -0.201083,-0.941917 -0.0635,-0.486834 -0.07408,-0.973667 -0.01058,-0.486833 -0.01058,-0.910167 0,-0.613833 0.0635,-1.30175 0.07408,-0.687916 0.306917,-1.27 0.243416,-0.592667 0.6985,-0.973667 0.465666,-0.391583 1.259416,-0.391583 0.582084,0 0.984251,0.201083 0.402166,0.201084 0.656166,0.53975 0.264584,0.338667 0.402167,0.783167 0.137583,0.433917 0.201083,0.92075 0.07408,0.47625 0.08467,0.963084 0.01058,0.486833 0.01058,0.92075 0,0.645583 -0.05292,1.354666 -0.05292,0.6985 -0.28575,1.291167 -0.232834,0.582084 -0.709084,0.963084 -0.47625,0.381 -1.312333,0.381 z"
         style="font-style:normal;font-variant:normal;font-weight:normal;font-stretch:normal;font-family:'Helvetica LT CondensedLight';-inkscape-font-specification:'Helvetica LT CondensedLight';letter-spacing:-0.84666669px;fill:#1a1a1a;fill-opacity:1;stroke:#1a1a1a;stroke-width:0.21166667;stroke-miterlimit:4;stroke-dasharray:none"
         id="path1028" />
      <path
         d="m 36.355907,46.76775 h 0.02117 v -6.815667 h 0.687917 v 7.937501 H 36.228907 L 33.28674,41.095083 h -0.02117 v 6.794501 h -0.687917 v -7.937501 h 0.85725 z"
         style="font-style:normal;font-variant:normal;font-weight:normal;font-stretch:normal;font-family:'Helvetica LT CondensedLight';-inkscape-font-specification:'Helvetica LT CondensedLight';letter-spacing:-0.84666669px;fill:#1a1a1a;fill-opacity:1;stroke:#1a1a1a;stroke-width:0.21166667;stroke-miterlimit:4;stroke-dasharray:none"
         id="path1030" />
      <path
         d="m 37.952906,47.889584 v -7.937501 h 0.687916 v 7.937501 z"
         style="font-style:normal;font-variant:normal;font-weight:normal;font-stretch:normal;font-family:'Helvetica LT CondensedLight';-inkscape-font-specification:'Helvetica LT CondensedLight';letter-spacing:-0.84666669px;fill:#1a1a1a;fill-opacity:1;stroke:#1a1a1a;stroke-width:0.21166667;stroke-miterlimit:4;stroke-dasharray:none"
         id="path1032" />
      <path
         d="m 43.296385,46.76775 h 0.02117 v -6.815667 h 0.687917 v 7.937501 h -0.836083 l -2.942167,-6.794501 h -0.02117 v 6.794501 h -0.687917 v -7.937501 h 0.857251 z"
         style="font-style:normal;font-variant:normal;font-weight:normal;font-stretch:normal;font-family:'Helvetica LT CondensedLight';-inkscape-font-specification:'Helvetica LT CondensedLight';letter-spacing:-0.84666669px;fill:#1a1a1a;fill-opacity:1;stroke:#1a1a1a;stroke-width:0.21166667;stroke-miterlimit:4;stroke-dasharray:none"
         id="path1034" />
      <path
         d="m 46.777218,44.566417 v -0.613834 h 2.391834 v 3.937001 h -0.550334 l -0.0635,-0.814917 h -0.02117 q -0.296334,0.508 -0.709084,0.762 -0.41275,0.243417 -1.016,0.243417 -0.560916,0 -0.941916,-0.201084 -0.381,-0.211666 -0.635,-0.560916 -0.254,-0.34925 -0.391584,-0.79375 -0.137583,-0.444501 -0.211666,-0.920751 -0.0635,-0.486833 -0.07408,-0.963083 -0.01058,-0.47625 -0.01058,-0.878417 0,-0.423333 0.02117,-0.878416 0.02117,-0.465667 0.09525,-0.910167 0.07408,-0.4445 0.22225,-0.846667 0.148166,-0.402167 0.41275,-0.6985 0.264583,-0.306917 0.656166,-0.486833 0.391584,-0.179917 0.9525,-0.179917 0.497417,0 0.889,0.1905 0.402167,0.1905 0.677334,0.518583 0.28575,0.3175 0.433916,0.751417 0.148167,0.423334 0.148167,0.899584 h -0.656167 q -0.04233,-0.3175 -0.137583,-0.635 -0.08467,-0.3175 -0.254,-0.560917 -0.169333,-0.243417 -0.433917,-0.391584 -0.264583,-0.15875 -0.645583,-0.15875 -0.433917,0 -0.73025,0.1905 -0.296333,0.179917 -0.486833,0.486834 -0.1905,0.306917 -0.28575,0.687917 -0.09525,0.381 -0.137584,0.783166 -0.04233,0.391584 -0.05292,0.762 0,0.359834 0,0.635 0,0.275167 0.01058,0.645584 0.01058,0.359833 0.05292,0.762 0.05292,0.391583 0.148166,0.772583 0.09525,0.381 0.275167,0.687917 0.1905,0.306917 0.465667,0.497417 0.275166,0.179916 0.677333,0.179916 0.370417,0 0.635,-0.137583 0.264583,-0.137583 0.4445,-0.359833 0.179917,-0.232834 0.275167,-0.529167 0.105833,-0.296334 0.15875,-0.613834 0.05292,-0.328083 0.07408,-0.645583 0.02117,-0.328083 0.03175,-0.613833 z"
         style="font-style:normal;font-variant:normal;font-weight:normal;font-stretch:normal;font-family:'Helvetica LT CondensedLight';-inkscape-font-specification:'Helvetica LT CondensedLight';letter-spacing:-0.84666669px;fill:#1a1a1a;fill-opacity:1;stroke:#1a1a1a;stroke-width:0.21166667;stroke-miterlimit:4;stroke-dasharray:none"
         id="path1036" />
    </g>
    <g
       aria-label="?"
       style="font-style:normal;font-variant:normal;font-weight:normal;font-stretch:normal;font-size:25.39999962px;line-height:1.25;font-family:'Helvetica LT CondensedBlack';-inkscape-font-specification:'Helvetica LT CondensedBlack';letter-spacing:-0.84666669px;word-spacing:0px;fill:#1a1a1a;fill-opacity:1;stroke:#1a1a1a;stroke-width:1.85208333;stroke-miterlimit:4;stroke-dasharray:none"
       id="text826-3">
      <path
         d="m 24.56363,24.734154 v -4.3434 h 4.2926 l 0.0254,4.3434 z m -3.2512,-13.4874 q -0.0762,-1.3208 0.3048,-2.4384 0.381,-1.1176 1.1176,-1.905 0.7366,-0.7874 1.8034,-1.2192 1.0922,-0.4572 2.413,-0.4572 1.1684,0 2.2098,0.2794 1.0668,0.254 1.8542,0.8382 0.8128,0.5842 1.27,1.4986 0.4826,0.9144 0.4826,2.2098 0,1.2192 -0.4826,2.1336 -0.4572,0.9144 -1.1938,1.8288 -0.4318,0.508 -0.8636,1.016 -0.4064,0.508 -0.7874,1.0414 -0.254,0.3556 -0.381,0.6604 -0.127,0.2794 -0.2032,0.5588 -0.0762,0.2794 -0.127,0.6096 -0.0254,0.3302 -0.0508,0.7366 h -3.8354 q -0.0254,-0.9144 0.0508,-1.8288 0.0762,-0.9398 0.5842,-1.7526 0.3048,-0.381 0.7874,-0.9398 0.4826,-0.5842 0.9398,-1.2192 0.4572,-0.635 0.762,-1.2954 0.3302,-0.6604 0.3302,-1.27 0,-0.6858 -0.3302,-1.1684 -0.3302,-0.508 -1.0922,-0.508 -0.5588,0 -0.8636,0.254 -0.3048,0.2286 -0.4572,0.6096 -0.1524,0.3556 -0.1778,0.8128 -0.0254,0.4572 -0.0254,0.9144 z"
         style="font-style:normal;font-variant:normal;font-weight:normal;font-stretch:normal;font-size:25.39999962px;font-family:'Helvetica LT CondensedBlack';-inkscape-font-specification:'Helvetica LT CondensedBlack';letter-spacing:0px;fill:#1a1a1a;fill-opacity:1;stroke:#1a1a1a;stroke-width:1.85208333;stroke-miterlimit:4;stroke-dasharray:none"
         id="path1033" />
    </g>
    <g
       aria-label="?"
       style="font-style:normal;font-variant:normal;font-weight:normal;font-stretch:normal;font-size:25.39999962px;line-height:1.25;font-family:'Helvetica LT CondensedBlack';-inkscape-font-specification:'Helvetica LT CondensedBlack';letter-spacing:-0.84666669px;word-spacing:0px;fill:#f2f2f2;fill-opacity:1;stroke:#1a1a1a;stroke-width:1.85208333;stroke-miterlimit:4;stroke-dasharray:none"
       id="text1022">
      <path
         d="m 24.56363,24.734154 v -4.3434 h 4.2926 l 0.0254,4.3434 z m -3.2512,-13.4874 q -0.0762,-1.3208 0.3048,-2.4384 0.381,-1.1176 1.1176,-1.905 0.7366,-0.7874 1.8034,-1.2192 1.0922,-0.4572 2.413,-0.4572 1.1684,0 2.2098,0.2794 1.0668,0.254 1.8542,0.8382 0.8128,0.5842 1.27,1.4986 0.4826,0.9144 0.4826,2.2098 0,1.2192 -0.4826,2.1336 -0.4572,0.9144 -1.1938,1.8288 -0.4318,0.508 -0.8636,1.016 -0.4064,0.508 -0.7874,1.0414 -0.254,0.3556 -0.381,0.6604 -0.127,0.2794 -0.2032,0.5588 -0.0762,0.2794 -0.127,0.6096 -0.0254,0.3302 -0.0508,0.7366 h -3.8354 q -0.0254,-0.9144 0.0508,-1.8288 0.0762,-0.9398 0.5842,-1.7526 0.3048,-0.381 0.7874,-0.9398 0.4826,-0.5842 0.9398,-1.2192 0.4572,-0.635 0.762,-1.2954 0.3302,-0.6604 0.3302,-1.27 0,-0.6858 -0.3302,-1.1684 -0.3302,-0.508 -1.0922,-0.508 -0.5588,0 -0.8636,0.254 -0.3048,0.2286 -0.4572,0.6096 -0.1524,0.3556 -0.1778,0.8128 -0.0254,0.4572 -0.0254,0.9144 z"
         style="font-style:normal;font-variant:normal;font-weight:normal;font-stretch:normal;font-size:25.39999962px;font-family:'Helvetica LT CondensedBlack';-inkscape-font-specification:'Helvetica LT CondensedBlack';letter-spacing:0px;fill:#f2f2f2;fill-opacity:1;stroke:#1a1a1a;stroke-width:1.85208333;stroke-miterlimit:4;stroke-dasharray:none"
         id="path1029" />
    </g>
  </g>
</svg>
