<?xml version="1.0" encoding="UTF-8" standalone="no"?>
<!-- Created with Inkscape (http://www.inkscape.org/) -->

<svg
   xmlns:dc="http://purl.org/dc/elements/1.1/"
   xmlns:cc="http://creativecommons.org/ns#"
   xmlns:rdf="http://www.w3.org/1999/02/22-rdf-syntax-ns#"
   xmlns:svg="http://www.w3.org/2000/svg"
   xmlns="http://www.w3.org/2000/svg"
   xmlns:sodipodi="http://sodipodi.sourceforge.net/DTD/sodipodi-0.dtd"
   xmlns:inkscape="http://www.inkscape.org/namespaces/inkscape"
   width="200"
   height="200"
   viewBox="0 0 52.916668 52.916666"
   version="1.1"
   id="svg8"
   inkscape:version="0.92.5 (2060ec1f9f, 2020-04-08)"
   sodipodi:docname="serious.svg"
   enable-background="new">
  <defs
     id="defs2">
    <marker
       inkscape:stockid="Arrow1Send"
       orient="auto"
       refY="0.0"
       refX="0.0"
       id="marker2771"
       style="overflow:visible;"
       inkscape:isstock="true">
      <path
         id="path2769"
         d="M 0.0,0.0 L 5.0,-5.0 L -12.5,0.0 L 5.0,5.0 L 0.0,0.0 z "
         style="fill-rule:evenodd;stroke:#1a1a1a;stroke-width:1pt;stroke-opacity:1;fill:#1a1a1a;fill-opacity:1"
         transform="scale(0.2) rotate(180) translate(6,0)" />
    </marker>
    <marker
       inkscape:isstock="true"
       style="overflow:visible;"
       id="marker2719"
       refX="0.0"
       refY="0.0"
       orient="auto"
       inkscape:stockid="Arrow1Send"
       inkscape:collect="always">
      <path
         transform="scale(0.2) rotate(180) translate(6,0)"
         style="fill-rule:evenodd;stroke:#1a1a1a;stroke-width:1pt;stroke-opacity:1;fill:#1a1a1a;fill-opacity:1"
         d="M 0.0,0.0 L 5.0,-5.0 L -12.5,0.0 L 5.0,5.0 L 0.0,0.0 z "
         id="path2717" />
    </marker>
    <marker
       inkscape:stockid="Arrow1Send"
       orient="auto"
       refY="0.0"
       refX="0.0"
       id="marker2424"
       style="overflow:visible;"
       inkscape:isstock="true"
       inkscape:collect="always">
      <path
         id="path2422"
         d="M 0.0,0.0 L 5.0,-5.0 L -12.5,0.0 L 5.0,5.0 L 0.0,0.0 z "
         style="fill-rule:evenodd;stroke:#1a1a1a;stroke-width:1pt;stroke-opacity:1;fill:#1a1a1a;fill-opacity:1"
         transform="scale(0.2) rotate(180) translate(6,0)" />
    </marker>
    <marker
       inkscape:stockid="Arrow1Send"
       orient="auto"
       refY="0.0"
       refX="0.0"
       id="marker2318"
       style="overflow:visible;"
       inkscape:isstock="true">
      <path
         id="path2316"
         d="M 0.0,0.0 L 5.0,-5.0 L -12.5,0.0 L 5.0,5.0 L 0.0,0.0 z "
         style="fill-rule:evenodd;stroke:#f2f2f2;stroke-width:1pt;stroke-opacity:1;fill:#f2f2f2;fill-opacity:1"
         transform="scale(0.2) rotate(180) translate(6,0)" />
    </marker>
    <marker
       inkscape:stockid="Arrow1Send"
       orient="auto"
       refY="0.0"
       refX="0.0"
       id="marker2218"
       style="overflow:visible;"
       inkscape:isstock="true">
      <path
         id="path1069"
         d="M 0.0,0.0 L 5.0,-5.0 L -12.5,0.0 L 5.0,5.0 L 0.0,0.0 z "
         style="fill-rule:evenodd;stroke:#f2f2f2;stroke-width:1pt;stroke-opacity:1;fill:#f2f2f2;fill-opacity:1"
         transform="scale(0.2) rotate(180) translate(6,0)" />
    </marker>
    <pattern
       inkscape:isstock="true"
       inkscape:stockid="Stripes 1:1"
       id="Strips1_1"
       patternTransform="translate(0,0) scale(10,10)"
       height="1"
       width="2"
       patternUnits="userSpaceOnUse"
       inkscape:collect="always">
      <rect
         id="rect1744"
         height="2"
         width="1"
         y="-0.5"
         x="0"
         style="fill:black;stroke:none" />
    </pattern>
    <marker
       inkscape:stockid="Arrow1Send"
       orient="auto"
       refY="0.0"
       refX="0.0"
       id="Arrow1Send"
       style="overflow:visible;"
       inkscape:isstock="true">
      <path
         id="path862"
         d="M 0.0,0.0 L 5.0,-5.0 L -12.5,0.0 L 5.0,5.0 L 0.0,0.0 z "
         style="fill-rule:evenodd;stroke:#f2f2f2;stroke-width:1pt;stroke-opacity:1;fill:#f2f2f2;fill-opacity:1"
         transform="scale(0.2) rotate(180) translate(6,0)" />
    </marker>
    <marker
       inkscape:stockid="Arrow1Mend"
       orient="auto"
       refY="0.0"
       refX="0.0"
       id="Arrow1Mend"
       style="overflow:visible;"
       inkscape:isstock="true">
      <path
         id="path856"
         d="M 0.0,0.0 L 5.0,-5.0 L -12.5,0.0 L 5.0,5.0 L 0.0,0.0 z "
         style="fill-rule:evenodd;stroke:#f2f2f2;stroke-width:1pt;stroke-opacity:1;fill:#f2f2f2;fill-opacity:1"
         transform="scale(0.4) rotate(180) translate(10,0)" />
    </marker>
    <marker
       inkscape:stockid="Arrow1Lstart"
       orient="auto"
       refY="0.0"
       refX="0.0"
       id="marker1285"
       style="overflow:visible"
       inkscape:isstock="true">
      <path
         id="path1283"
         d="M 0.0,0.0 L 5.0,-5.0 L -12.5,0.0 L 5.0,5.0 L 0.0,0.0 z "
         style="fill-rule:evenodd;stroke:#f2f2f2;stroke-width:1pt;stroke-opacity:1;fill:#f2f2f2;fill-opacity:1"
         transform="scale(0.8) translate(12.5,0)" />
    </marker>
    <marker
       inkscape:stockid="Arrow1Lend"
       orient="auto"
       refY="0.0"
       refX="0.0"
       id="Arrow1Lend"
       style="overflow:visible;"
       inkscape:isstock="true">
      <path
         id="path850"
         d="M 0.0,0.0 L 5.0,-5.0 L -12.5,0.0 L 5.0,5.0 L 0.0,0.0 z "
         style="fill-rule:evenodd;stroke:#f2f2f2;stroke-width:1pt;stroke-opacity:1;fill:#f2f2f2;fill-opacity:1"
         transform="scale(0.8) rotate(180) translate(12.5,0)" />
    </marker>
    <marker
       inkscape:stockid="Arrow2Lend"
       orient="auto"
       refY="0.0"
       refX="0.0"
       id="Arrow2Lend"
       style="overflow:visible;"
       inkscape:isstock="true">
      <path
         id="path868"
         style="fill-rule:evenodd;stroke-width:0.625;stroke-linejoin:round;stroke:#f2f2f2;stroke-opacity:1;fill:#f2f2f2;fill-opacity:1"
         d="M 8.7185878,4.0337352 L -2.2072895,0.016013256 L 8.7185884,-4.0017078 C 6.9730900,-1.6296469 6.9831476,1.6157441 8.7185878,4.0337352 z "
         transform="scale(1.1) rotate(180) translate(1,0)" />
    </marker>
    <marker
       inkscape:stockid="Arrow1Lstart"
       orient="auto"
       refY="0.0"
       refX="0.0"
       id="marker1157"
       style="overflow:visible"
       inkscape:isstock="true">
      <path
         id="path1155"
         d="M 0.0,0.0 L 5.0,-5.0 L -12.5,0.0 L 5.0,5.0 L 0.0,0.0 z "
         style="fill-rule:evenodd;stroke:#f2f2f2;stroke-width:1pt;stroke-opacity:1;fill:#f2f2f2;fill-opacity:1"
         transform="scale(0.8) translate(12.5,0)" />
    </marker>
    <marker
       inkscape:stockid="Arrow2Lstart"
       orient="auto"
       refY="0.0"
       refX="0.0"
       id="Arrow2Lstart"
       style="overflow:visible"
       inkscape:isstock="true">
      <path
         id="path865"
         style="fill-rule:evenodd;stroke-width:0.625;stroke-linejoin:round;stroke:#f2f2f2;stroke-opacity:1;fill:#f2f2f2;fill-opacity:1"
         d="M 8.7185878,4.0337352 L -2.2072895,0.016013256 L 8.7185884,-4.0017078 C 6.9730900,-1.6296469 6.9831476,1.6157441 8.7185878,4.0337352 z "
         transform="scale(1.1) translate(1,0)" />
    </marker>
    <marker
       inkscape:stockid="Arrow1Lstart"
       orient="auto"
       refY="0.0"
       refX="0.0"
       id="Arrow1Lstart"
       style="overflow:visible"
       inkscape:isstock="true">
      <path
         id="path847"
         d="M 0.0,0.0 L 5.0,-5.0 L -12.5,0.0 L 5.0,5.0 L 0.0,0.0 z "
         style="fill-rule:evenodd;stroke:#f2f2f2;stroke-width:1pt;stroke-opacity:1;fill:#f2f2f2;fill-opacity:1"
         transform="scale(0.8) translate(12.5,0)" />
    </marker>
    <inkscape:path-effect
       effect="envelope"
       id="path-effect4658"
       is_visible="true"
       yy="true"
       xx="true"
       bendpath1="m -199.08406,108.42369 h 7.0057"
       bendpath2="m -192.07836,108.42369 v 6.75242"
       bendpath3="m -199.08406,115.17611 h 7.0057"
       bendpath4="m -199.08406,108.42369 v 6.75242" />
    <inkscape:path-effect
       effect="bend_path"
       id="path-effect4656"
       is_visible="true"
       bendpath="m -192.00142,114.60623 c 2.12577,-0.53066 4.48261,0.85111 7.0057,0"
       prop_scale="1"
       scale_y_rel="false"
       vertical="false"
       bendpath-nodetypes="cc" />
    <inkscape:path-effect
       effect="bounding_box"
       id="path-effect4654"
       is_visible="true"
       linkedpath=""
       visualbounds="false" />
    <marker
       inkscape:stockid="Arrow1Send"
       orient="auto"
       refY="0"
       refX="0"
       id="Arrow1Send-7"
       style="overflow:visible"
       inkscape:isstock="true">
      <path
         inkscape:connector-curvature="0"
         id="path862-3"
         d="M 0,0 5,-5 -12.5,0 5,5 Z"
         style="fill:#f2f2f2;fill-opacity:1;fill-rule:evenodd;stroke:#f2f2f2;stroke-width:1.00000003pt;stroke-opacity:1"
         transform="matrix(-0.2,0,0,-0.2,-1.2,0)" />
    </marker>
    <marker
       inkscape:stockid="Arrow1Send"
       orient="auto"
       refY="0"
       refX="0"
       id="Arrow1Send-4"
       style="overflow:visible"
       inkscape:isstock="true">
      <path
         inkscape:connector-curvature="0"
         id="path862-7"
         d="M 0,0 5,-5 -12.5,0 5,5 Z"
         style="fill:url(#Strips1_1);fill-opacity:1;fill-rule:evenodd;stroke:#f2f2f2;stroke-width:1.00000003pt;stroke-opacity:1"
         transform="matrix(-0.2,0,0,-0.2,-1.2,0)" />
    </marker>
    <marker
       inkscape:stockid="Arrow1Send"
       orient="auto"
       refY="0"
       refX="0"
       id="Arrow1Send-4-7"
       style="overflow:visible"
       inkscape:isstock="true">
      <path
         inkscape:connector-curvature="0"
         id="path862-7-2"
         d="M 0,0 5,-5 -12.5,0 5,5 Z"
         style="fill:#f2f2f2;fill-opacity:1;fill-rule:evenodd;stroke:#f2f2f2;stroke-width:1.00000003pt;stroke-opacity:1"
         transform="matrix(-0.2,0,0,-0.2,-1.2,0)" />
    </marker>
    <marker
       inkscape:stockid="Arrow1Send"
       orient="auto"
       refY="0"
       refX="0"
       id="Arrow1Send-1"
       style="overflow:visible"
       inkscape:isstock="true">
      <path
         inkscape:connector-curvature="0"
         id="path862-6"
         d="M 0,0 5,-5 -12.5,0 5,5 Z"
         style="fill:#f2f2f2;fill-opacity:1;fill-rule:evenodd;stroke:#f2f2f2;stroke-width:1.00000003pt;stroke-opacity:1"
         transform="matrix(-0.2,0,0,-0.2,-1.2,0)" />
    </marker>
  </defs>
  <sodipodi:namedview
     id="base"
     pagecolor="#ffffff"
     bordercolor="#666666"
     borderopacity="1.0"
     inkscape:pageopacity="0.0"
     inkscape:pageshadow="2"
     inkscape:zoom="2.8284271"
     inkscape:cx="-79.595178"
     inkscape:cy="105.07799"
     inkscape:document-units="px"
     inkscape:current-layer="layer6"
     showgrid="false"
     fit-margin-top="0"
     fit-margin-left="0"
     fit-margin-right="0"
     fit-margin-bottom="0"
     inkscape:window-width="1920"
     inkscape:window-height="1015"
     inkscape:window-x="0"
     inkscape:window-y="0"
     inkscape:window-maximized="1"
     showguides="true"
     inkscape:object-nodes="false"
     units="px" />
  <metadata
     id="metadata5">
    <rdf:RDF>
      <cc:Work
         rdf:about="">
        <dc:format>image/svg+xml</dc:format>
        <dc:type
           rdf:resource="http://purl.org/dc/dcmitype/StillImage" />
        <dc:title />
      </cc:Work>
    </rdf:RDF>
  </metadata>
  <g
     inkscape:groupmode="layer"
     id="layer5"
     inkscape:label="background">
    <rect
       transform="scale(2)"
       y="-1.110223e-16"
       x="0"
       height="26.458334"
       width="26.458334"
       id="rect4485"
       style="stroke-width:0.25003125;opacity:1;fill:#1a1a1a;fill-opacity:1;fill-rule:nonzero;stroke:#1a1a1a;stroke-linecap:butt;stroke-linejoin:round;stroke-miterlimit:4;stroke-dasharray:none;stroke-dashoffset:0;stroke-opacity:0.90944878;paint-order:normal"
       rx="1.984375"
       ry="1.984375" />
  </g>
  <g
     inkscape:groupmode="layer"
     id="layer8"
     inkscape:label="icon-bg">
    <rect
       style="stroke-width:0.25;opacity:1;fill:#f2f2f2;fill-opacity:1;fill-rule:nonzero;stroke:#1a1a1a;stroke-linecap:butt;stroke-linejoin:round;stroke-miterlimit:4;stroke-dasharray:none;stroke-dashoffset:0;stroke-opacity:0.90944878;paint-order:normal"
       id="rect4487"
       width="23.8125"
       height="23.8125"
       x="0.529167"
       y="0.13229197"
       rx="1.3229166"
       ry="1.3229166"
       transform="matrix(2,0,0,2,1.5875,2.38125)" />
  </g>
  <g
     inkscape:label="icon"
     inkscape:groupmode="layer"
     id="layer1"
     transform="translate(39.608708,-92.411388)"
     style="">
    <g
       id="g3154"
       transform="matrix(1,0,0,-1,0,230.58554)">
      <g
         id="g1265"
         transform="translate(2.210211)">
        <path
           style="fill:#1a1a1a;stroke:#1a1a1a;stroke-width:1.85208344;stroke-linecap:butt;stroke-linejoin:miter;stroke-miterlimit:4;stroke-dasharray:none;stroke-opacity:1;marker-end:url(#marker2424)"
           d="M -12.365412,136.14792 -1.1828683,118.28173"
           id="path1013"
           inkscape:connector-curvature="0"
           sodipodi:nodetypes="cc" />
        <path
           sodipodi:nodetypes="cc"
           inkscape:connector-curvature="0"
           id="path2715"
           d="m -33.53643,136.14791 18.165814,-28.46364"
           style="fill:#1a1a1a;stroke:#1a1a1a;stroke-width:1.85208333;stroke-linecap:butt;stroke-linejoin:miter;stroke-miterlimit:4;stroke-dasharray:none;stroke-opacity:1;marker-end:url(#marker2719)" />
        <path
           style="fill:#1a1a1a;stroke:#1a1a1a;stroke-width:1.85208333;stroke-linecap:butt;stroke-linejoin:miter;stroke-miterlimit:4;stroke-dasharray:none;stroke-opacity:1;marker-end:url(#marker2771)"
           d="M -22.948747,136.14799 -8.2440833,112.98121"
           id="path2767"
           inkscape:connector-curvature="0"
           sodipodi:nodetypes="cc" />
      </g>
    </g>
  </g>
  <g
     inkscape:groupmode="layer"
     id="layer4"
     inkscape:label="word_bg">
    <path
       style="opacity:1;fill:#1a1a1a;fill-opacity:1;fill-rule:nonzero;stroke:none;stroke-width:0.49468067;stroke-linecap:butt;stroke-linejoin:round;stroke-miterlimit:4;stroke-dasharray:none;stroke-dashoffset:0;stroke-opacity:0.90944878;paint-order:normal"
       d="m 1.4552094,37.041672 v 8.334376 c 0,3.078162 2.4780879,5.556248 5.5562506,5.556248 h 38.893751 c 3.078163,0 5.55625,-2.478086 5.55625,-5.556248 v -8.334376 z"
       id="rect5205-3"
       inkscape:connector-curvature="0" />
  </g>
  <g
     inkscape:groupmode="layer"
     id="layer6"
     inkscape:label="word">
    <g
       aria-label="SERIOUS"
       style="font-style:normal;font-weight:normal;font-size:10.58333397px;line-height:1.25;font-family:sans-serif;letter-spacing:0px;word-spacing:0px;fill:#f2f2f2;fill-opacity:1;stroke:#f2f2f2;stroke-width:0.39687499;stroke-miterlimit:4;stroke-dasharray:none"
       id="text826">
      <path
         d="m 12.278372,43.561 q 0.433917,0.179917 0.804334,0.359833 0.381,0.179917 0.645583,0.433917 0.275167,0.243417 0.423334,0.60325 0.15875,0.34925 0.15875,0.889 0,0.508 -0.15875,0.92075 -0.15875,0.41275 -0.455084,0.709084 -0.296333,0.28575 -0.719667,0.4445 -0.423333,0.15875 -0.941916,0.15875 -0.53975,0 -0.9525,-0.179917 -0.41275,-0.179917 -0.6985,-0.508 -0.275167,-0.328083 -0.4127504,-0.772583 -0.127,-0.444501 -0.1164166,-0.973667 h 0.677333 q 0,0.370416 0.07408,0.709083 0.08467,0.328084 0.254,0.582084 0.179916,0.243416 0.465666,0.391583 0.28575,0.137583 0.6985,0.137583 0.73025,0 1.164167,-0.423333 0.433917,-0.433917 0.433917,-1.17475 0,-0.4445 -0.148167,-0.719667 -0.148166,-0.28575 -0.402167,-0.465667 -0.243416,-0.179916 -0.5715,-0.296333 -0.3175,-0.127 -0.656166,-0.264583 -0.402167,-0.15875 -0.740834,-0.338667 -0.328083,-0.179917 -0.5715,-0.423333 -0.243416,-0.254 -0.381,-0.592667 -0.137583,-0.338667 -0.137583,-0.814917 0,-0.486833 0.137583,-0.889 0.148167,-0.402167 0.41275,-0.687917 0.264584,-0.296333 0.645584,-0.455083 0.381,-0.15875 0.867833,-0.15875 0.465667,0 0.836083,0.15875 0.381001,0.148167 0.645584,0.433917 0.275167,0.275166 0.41275,0.66675 0.137583,0.381 0.127,0.846667 h -0.66675 q 0.03175,-0.66675 -0.338667,-1.079501 -0.359833,-0.41275 -1.026583,-0.41275 -0.338667,0 -0.592667,0.116417 -0.254,0.116417 -0.433917,0.328083 -0.169333,0.201084 -0.254,0.486834 -0.08467,0.275167 -0.08467,0.60325 0,0.296333 0.05292,0.508 0.05292,0.211667 0.15875,0.370417 0.116417,0.15875 0.296334,0.28575 0.1905,0.116416 0.455083,0.232833 z"
         style="font-style:normal;font-variant:normal;font-weight:normal;font-stretch:normal;font-family:'Helvetica LT CondensedLight';-inkscape-font-specification:'Helvetica LT CondensedLight';fill:#f2f2f2;fill-opacity:1;stroke:#f2f2f2;stroke-width:0.39687499;stroke-miterlimit:4;stroke-dasharray:none"
         id="path1084" />
      <path
         d="m 15.432186,47.889584 v -7.937501 h 3.598333 v 0.613833 h -2.910416 v 2.857501 h 2.645833 v 0.613833 h -2.645833 v 3.2385 h 2.963333 v 0.613834 z"
         style="font-style:normal;font-variant:normal;font-weight:normal;font-stretch:normal;font-family:'Helvetica LT CondensedLight';-inkscape-font-specification:'Helvetica LT CondensedLight';fill:#f2f2f2;fill-opacity:1;stroke:#f2f2f2;stroke-width:0.39687499;stroke-miterlimit:4;stroke-dasharray:none"
         id="path1086" />
      <path
         d="m 20.776752,43.539833 h 1.2065 q 0.08467,0 0.3175,-0.03175 0.232833,-0.04233 0.465666,-0.1905 0.243417,-0.148166 0.423334,-0.4445 0.1905,-0.306916 0.1905,-0.836083 0,-0.433917 -0.105834,-0.719667 -0.09525,-0.28575 -0.296333,-0.4445 -0.201083,-0.169333 -0.508,-0.232833 -0.296333,-0.07408 -0.6985,-0.07408 h -0.994833 z m 0,0.613834 v 3.735917 h -0.687917 v -7.937501 h 1.534583 q 0.53975,0 0.98425,0.09525 0.455084,0.08467 0.772584,0.3175 0.328083,0.232833 0.508,0.624417 0.179916,0.391583 0.179916,0.994833 0,0.28575 -0.0635,0.592667 -0.0635,0.296333 -0.211666,0.560917 -0.137584,0.264583 -0.359834,0.455083 -0.211666,0.1905 -0.529166,0.254 v 0.02117 q 0.34925,0.08467 0.550333,0.264583 0.211667,0.169333 0.3175,0.423333 0.116417,0.243417 0.148167,0.560917 0.04233,0.3175 0.04233,0.687917 0.01058,0.148166 0.01058,0.4445 0,0.296333 0.03175,0.613833 0.03175,0.3175 0.09525,0.592667 0.07408,0.264583 0.22225,0.338667 v 0.09525 h -0.751416 q -0.116417,-0.254 -0.169334,-0.60325 -0.05292,-0.359834 -0.08467,-0.73025 -0.03175,-0.370417 -0.04233,-0.709084 -0.01058,-0.338667 -0.02117,-0.560917 -0.03175,-0.391583 -0.1905,-0.613833 -0.148167,-0.232833 -0.391584,-0.34925 -0.232833,-0.116417 -0.53975,-0.137583 -0.306916,-0.03175 -0.645583,-0.03175 z"
         style="font-style:normal;font-variant:normal;font-weight:normal;font-stretch:normal;font-family:'Helvetica LT CondensedLight';-inkscape-font-specification:'Helvetica LT CondensedLight';fill:#f2f2f2;fill-opacity:1;stroke:#f2f2f2;stroke-width:0.39687499;stroke-miterlimit:4;stroke-dasharray:none"
         id="path1088" />
      <path
         d="m 25.549815,47.889584 v -7.937501 h 0.687917 v 7.937501 z"
         style="font-style:normal;font-variant:normal;font-weight:normal;font-stretch:normal;font-family:'Helvetica LT CondensedLight';-inkscape-font-specification:'Helvetica LT CondensedLight';fill:#f2f2f2;fill-opacity:1;stroke:#f2f2f2;stroke-width:0.39687499;stroke-miterlimit:4;stroke-dasharray:none"
         id="path1090" />
      <path
         d="m 30.047714,47.46625 q 0.423333,0 0.6985,-0.179916 0.28575,-0.1905 0.465666,-0.486834 0.179917,-0.296333 0.264584,-0.677333 0.09525,-0.381 0.127,-0.772584 0.04233,-0.391583 0.04233,-0.762 0.01058,-0.370416 0.01058,-0.656166 0,-0.28575 -0.01058,-0.66675 0,-0.381 -0.05292,-0.772584 -0.04233,-0.391583 -0.148166,-0.772583 -0.09525,-0.381 -0.28575,-0.677333 -0.179917,-0.306917 -0.47625,-0.486834 -0.28575,-0.179917 -0.709084,-0.179917 -0.402167,0 -0.677333,0.179917 -0.275167,0.179917 -0.455084,0.47625 -0.169333,0.28575 -0.275166,0.656167 -0.09525,0.370417 -0.137584,0.762 -0.04233,0.381 -0.05292,0.751417 -0.01058,0.370416 -0.01058,0.656166 0,0.306917 0,0.6985 0.01058,0.381 0.04233,0.783167 0.04233,0.391583 0.137583,0.783167 0.105833,0.381 0.28575,0.677333 0.1905,0.296334 0.486833,0.486834 0.296334,0.179916 0.730251,0.179916 z m -0.0635,0.613834 q -0.571501,0 -0.973667,-0.201084 -0.391584,-0.211666 -0.645584,-0.560916 -0.254,-0.34925 -0.402166,-0.79375 -0.137584,-0.455084 -0.201084,-0.941917 -0.0635,-0.486834 -0.07408,-0.973667 -0.01058,-0.486833 -0.01058,-0.910167 0,-0.613833 0.0635,-1.30175 0.07408,-0.687916 0.306916,-1.27 0.243417,-0.592667 0.6985,-0.973667 0.465667,-0.391583 1.259417,-0.391583 0.582084,0 0.98425,0.201083 0.402167,0.201084 0.656167,0.53975 0.264583,0.338667 0.402167,0.783167 0.137583,0.433917 0.201083,0.92075 0.07408,0.47625 0.08467,0.963084 0.01058,0.486833 0.01058,0.92075 0,0.645583 -0.05292,1.354666 -0.05292,0.6985 -0.28575,1.291167 -0.232833,0.582084 -0.709083,0.963084 -0.47625,0.381 -1.312333,0.381 z"
         style="font-style:normal;font-variant:normal;font-weight:normal;font-stretch:normal;font-family:'Helvetica LT CondensedLight';-inkscape-font-specification:'Helvetica LT CondensedLight';fill:#f2f2f2;fill-opacity:1;stroke:#f2f2f2;stroke-width:0.39687499;stroke-miterlimit:4;stroke-dasharray:none"
         id="path1092" />
      <path
         d="m 33.720127,39.952083 h 0.687917 v 5.757334 q 0,0.423333 0.05292,0.751417 0.0635,0.328083 0.22225,0.550333 0.15875,0.22225 0.4445,0.338667 0.28575,0.116416 0.73025,0.116416 0.465667,0 0.762,-0.127 0.296333,-0.137583 0.455083,-0.381 0.169334,-0.243416 0.232834,-0.5715 0.0635,-0.338667 0.0635,-0.740833 v -5.693834 h 0.687916 v 5.5245 q 0,0.582084 -0.105833,1.058334 -0.09525,0.47625 -0.34925,0.8255 -0.243417,0.338667 -0.66675,0.529167 -0.41275,0.1905 -1.058333,0.1905 -1.143,0 -1.651,-0.592667 -0.508001,-0.60325 -0.508001,-1.693334 z"
         style="font-style:normal;font-variant:normal;font-weight:normal;font-stretch:normal;font-family:'Helvetica LT CondensedLight';-inkscape-font-specification:'Helvetica LT CondensedLight';fill:#f2f2f2;fill-opacity:1;stroke:#f2f2f2;stroke-width:0.39687499;stroke-miterlimit:4;stroke-dasharray:none"
         id="path1094" />
      <path
         d="m 41.678794,43.561 q 0.433916,0.179917 0.804333,0.359833 0.381,0.179917 0.645583,0.433917 0.275167,0.243417 0.423334,0.60325 0.15875,0.34925 0.15875,0.889 0,0.508 -0.15875,0.92075 -0.15875,0.41275 -0.455084,0.709084 -0.296333,0.28575 -0.719666,0.4445 -0.423334,0.15875 -0.941917,0.15875 -0.53975,0 -0.9525,-0.179917 -0.41275,-0.179917 -0.6985,-0.508 -0.275167,-0.328083 -0.41275,-0.772583 -0.127,-0.444501 -0.116417,-0.973667 h 0.677333 q 0,0.370416 0.07408,0.709083 0.08467,0.328084 0.254,0.582084 0.179917,0.243416 0.465667,0.391583 0.28575,0.137583 0.6985,0.137583 0.73025,0 1.164166,-0.423333 0.433917,-0.433917 0.433917,-1.17475 0,-0.4445 -0.148167,-0.719667 -0.148166,-0.28575 -0.402166,-0.465667 -0.243417,-0.179916 -0.5715,-0.296333 -0.3175,-0.127 -0.656167,-0.264583 -0.402167,-0.15875 -0.740833,-0.338667 -0.328084,-0.179917 -0.571501,-0.423333 -0.243416,-0.254 -0.381,-0.592667 -0.137583,-0.338667 -0.137583,-0.814917 0,-0.486833 0.137583,-0.889 0.148167,-0.402167 0.41275,-0.687917 0.264584,-0.296333 0.645584,-0.455083 0.381,-0.15875 0.867833,-0.15875 0.465667,0 0.836084,0.15875 0.381,0.148167 0.645583,0.433917 0.275167,0.275166 0.41275,0.66675 0.137583,0.381 0.127,0.846667 h -0.66675 q 0.03175,-0.66675 -0.338667,-1.079501 -0.359833,-0.41275 -1.026583,-0.41275 -0.338667,0 -0.592667,0.116417 -0.254,0.116417 -0.433916,0.328083 -0.169334,0.201084 -0.254,0.486834 -0.08467,0.275167 -0.08467,0.60325 0,0.296333 0.05292,0.508 0.05292,0.211667 0.15875,0.370417 0.116416,0.15875 0.296333,0.28575 0.1905,0.116416 0.455083,0.232833 z"
         style="font-style:normal;font-variant:normal;font-weight:normal;font-stretch:normal;font-family:'Helvetica LT CondensedLight';-inkscape-font-specification:'Helvetica LT CondensedLight';fill:#f2f2f2;fill-opacity:1;stroke:#f2f2f2;stroke-width:0.39687499;stroke-miterlimit:4;stroke-dasharray:none"
         id="path1096" />
    </g>
  </g>
</svg>
